<svg width="24" height="24" viewBox="0 0 24 24" fill="none" xmlns="http://www.w3.org/2000/svg">
<path d="M18.2836 10.7598C18.2836 9.30805 17.7672 6.10338 14.9013 4.60811C13.5345 3.96693 10.1771 3.28341 7.68218 5.67875M18.2836 10.7598C17.7859 10.6863 17.2414 10.5034 16.8198 10.2537M18.2836 10.7598C18.2836 11.2769 18.2782 11.9629 18.1109 12.4565M5.98195 8.8181C5.8486 9.45927 5.6219 11.0429 5.78192 12.2478L5.80173 12.6107M13.5739 19.2251C12.9193 19.5953 12.0222 19.6213 11.6554 19.5881C9.72064 19.2106 8.24892 17.1685 7.75492 16.1947C7.60015 15.7736 7.47253 15.3234 7.36839 14.879M6.96094 11.7669C6.95248 10.1386 7.30615 9.62731 7.50034 9.58025C8.57321 9.51976 10.9626 9.29172 11.9373 8.86346C12.912 8.43521 13.883 7.60228 14.2467 7.23935C14.5711 8.01759 15.4916 9.46707 16.8198 10.2537M6.96094 11.7669C6.96173 11.9175 6.96561 12.0776 6.97299 12.2478C7.00091 12.7535 7.11525 13.7988 7.36839 14.879M6.96094 11.7669C6.60483 11.7971 5.92603 12.0095 5.80173 12.6107M7.36839 14.879C6.04085 15.3 5.7576 13.6753 5.78192 12.8103C5.78192 12.7395 5.78885 12.673 5.80173 12.6107M16.8198 10.2537C16.8942 10.6511 16.9627 11.1956 16.9927 11.8123M15.9288 16.6846C16.3074 16.1883 16.5643 15.5737 16.7323 14.9153M16.9927 11.8123C17.2836 11.782 17.9145 11.8685 18.1109 12.4565M16.9927 11.8123C17.039 12.7666 16.9928 13.8937 16.7323 14.9153M18.1109 12.4565C18.3564 13.1914 18.1109 14.008 18.1109 14.1441C18.1109 14.2802 17.654 15.1149 16.7323 14.9153M8.20043 11.5219C8.60352 11.28 9.67882 10.9412 10.7553 11.5219M13.1829 11.5219C13.4496 11.2437 14.3304 10.8541 15.7196 11.5219M13.3648 12.9374C13.6587 13.2458 14.4667 13.6777 15.3469 12.9374M8.46411 13.0462C8.79748 13.3063 9.65154 13.6487 10.4007 12.9374M11.6282 13.0462C11.5918 13.3668 11.4936 14.0878 11.3918 14.4072C11.2645 14.8064 11.3372 15.1422 11.5645 15.2147C11.7918 15.2873 12.1373 15.2873 12.2283 15.2147M10.8281 16.7753C11.2342 16.9901 12.2464 17.2907 13.0465 16.7753M6.46383 5.17065C6.36685 5.53358 6.1547 6.27758 6.08196 6.35017C6.00923 6.42276 5.33035 6.80383 5 6.9853C5.29398 7.10325 5.90194 7.37001 5.98195 7.4934C6.06196 7.6168 6.38504 8.42795 6.53657 8.8181C6.66386 8.43097 6.95117 7.62406 7.0821 7.4934C7.21303 7.36275 7.88221 7.03974 8.20043 6.89457C7.82766 6.77964 7.07301 6.52256 7.03664 6.41368C7.00027 6.3048 6.63962 5.53963 6.46383 5.17065ZM14.8382 16.4202C14.7539 16.7354 14.5697 17.3816 14.5065 17.4447C14.4433 17.5077 13.8537 17.8387 13.5668 17.9963C13.8221 18.0987 14.3502 18.3304 14.4197 18.4376C14.4891 18.5447 14.7697 19.2492 14.9013 19.5881C15.0119 19.2518 15.2614 18.551 15.3751 18.4376C15.4888 18.3241 16.07 18.0435 16.3464 17.9175C16.0227 17.8176 15.3672 17.5944 15.3357 17.4998C15.3041 17.4053 14.9908 16.7407 14.8382 16.4202Z" stroke="black" stroke-width="0.45" stroke-linecap="round"/>
</svg>
