<svg width="24" height="24" viewBox="0 0 24 24" fill="none" xmlns="http://www.w3.org/2000/svg">
<path d="M11.8914 20C10.17 17.5353 6.68024 12.5354 6.49245 12.2537C6.25772 11.9016 5.07967 10.1411 5.95351 8.68143M19.5203 16.4789C17.6424 13.623 13.7458 7.79369 13.1824 7.32422C12.5173 6.65913 11.1828 5.32896 10.1265 5.98606M6.28277 4.71687C5.81326 5.18635 4.14505 6.2679 5.55347 8.1458C6.96189 10.0237 8.13053 11.6668 8.5388 12.2537C9 13 10.6996 13.2454 11.774 12.2537C13.2998 10.8453 12.713 9.78894 12.0087 8.73264C11.4454 7.8876 9.73963 5.56371 8.95717 4.50739C8.64419 4.07704 7.66612 3.5215 6.2577 4.74213" stroke="black" stroke-width="0.45" stroke-linecap="round"/>
</svg>
