<svg width="24" height="24" viewBox="0 0 24 24" fill="none" xmlns="http://www.w3.org/2000/svg">
<path d="M22.2213 14.7548C21.8643 13.8047 20.5859 11.5311 18.3275 10.0372C17.5116 9.49746 16.4763 9.12965 15.4071 8.8846M20.3717 14.9513C19.2035 15.9342 15.9522 17.9195 12.292 17.9981C7.71681 18.0964 3.33628 14.3616 3.04425 14.1651C2.75221 13.9685 2.36286 14.4599 2.26552 14.5582C2.18764 14.6368 2.23307 14.3944 2.26552 14.2633C2.54345 13.4215 3.22697 12.1568 4.42935 11.02M9.27434 8.61315C9.64681 8.54558 10.036 8.49527 10.4425 8.46464C10.8706 8.43971 11.4436 8.43248 12.0973 8.45999M9.27434 8.61315C8.65782 9.18611 7.63894 10.8824 8.49558 13.0839C9.35221 15.2855 11.4484 15.7048 12.3894 15.6393C13.59 15.5738 16.0885 14.7351 16.4779 11.9045C16.5103 11.1034 16.3416 9.37782 15.4071 8.8846M9.27434 8.61315C8.66323 8.72403 8.09722 8.88138 7.57412 9.07454M15.4071 8.8846C15.2454 8.84755 15.0829 8.8133 14.9204 8.78169M12.0973 8.45999C11.3835 8.69087 9.99469 9.62438 10.1504 11.5114C10.3451 13.8702 12.8761 13.4771 13.2655 13.2805C13.6549 13.0839 14.7257 11.9045 14.823 11.3149C14.8555 11.2493 14.9009 11.1183 14.823 11.1183C14.7257 11.1183 13.6549 11.5114 13.4602 10.332C13.3044 9.3885 14.3687 8.90534 14.9204 8.78169M12.0973 8.45999C12.9487 8.4958 13.937 8.59051 14.9204 8.78169M5.76991 7.87495C6.03171 8.28154 6.75908 9.0907 7.57412 9.07454M7.57412 9.07454C6.86097 9.33788 6.22757 9.66777 5.66834 10.0372M3.43363 8.95606C3.72284 9.41471 4.57469 10.2731 5.66834 10.0372M5.66834 10.0372C5.2056 10.3428 4.79366 10.6755 4.42935 11.02M1 10.4303C1.59891 10.9217 3.12326 11.7276 4.42935 11.02M5.57522 4.72989C9.11209 3.48497 17.5487 2.94114 23 10.7252" stroke="black" stroke-width="0.45" stroke-linecap="round"/>
</svg>
