<svg xmlns="http://www.w3.org/2000/svg" xmlns:xlink="http://www.w3.org/1999/xlink" width="2000" zoomAndPan="magnify" viewBox="0 0 1500 1499.999933" height="2000" preserveAspectRatio="xMidYMid meet" version="1.0"><path fill="#921a40" d="M 690.136719 1042.023438 L 695.261719 1028.464844 C 696.878906 1024.367188 698.875 1019.679688 700.992188 1016.03125 C 702.121094 1014.09375 703.054688 1012.042969 704.292969 1009.992188 L 715.5 993.695312 L 744.964844 962.960938 C 750.804688 957.871094 757.257812 953.480469 763.316406 948.617188 C 771.964844 941.664062 798.792969 925.199219 808.09375 919.699219 C 812.078125 917.34375 816.003906 915.71875 819.914062 913.359375 L 865.832031 885.0625 C 868.109375 883.660156 869.230469 882.722656 871.394531 881.285156 C 883.675781 873.125 897.800781 863.933594 908.675781 854.214844 C 910.484375 852.597656 911.902344 851.375 913.746094 849.941406 C 918.859375 845.960938 922.851562 840.730469 928.058594 836.75 L 941.90625 822.578125 C 951 810.992188 959.011719 800.652344 967.441406 788.507812 C 983.152344 765.886719 968.316406 797.574219 965.289062 802.859375 C 957.09375 817.171875 947.507812 830.101562 935.835938 841.765625 L 934.96875 842.625 L 933.070312 844.359375 C 924.933594 852.316406 917.238281 859.765625 908.398438 866.910156 L 903.210938 871.066406 C 898.113281 875.386719 892.449219 879 887.128906 883.007812 C 875.609375 891.6875 843.414062 911.738281 829.496094 918.789062 L 811.34375 929.179688 C 803.617188 933.851562 795.136719 937.832031 787.632812 942.832031 C 785.746094 944.085938 783.792969 945.222656 781.921875 946.464844 C 780.046875 947.707031 778.3125 948.957031 776.320312 950.203125 C 770.558594 953.808594 764.5 957.453125 759.09375 961.519531 L 738.730469 978.519531 C 737.664062 979.378906 737.105469 979.804688 736.246094 980.710938 C 735.929688 981.046875 735.484375 981.550781 735.011719 982.070312 C 725.988281 991.9375 725.460938 991.925781 716.613281 1003.628906 C 707.636719 1015.5 699.570312 1033.136719 695.316406 1047.722656 C 689.226562 1071.304688 690.109375 1081.667969 689.574219 1105.195312 C 689.011719 1130.132812 684.398438 1088.101562 684.28125 1084.511719 C 683.796875 1069.507812 685.601562 1057.082031 689.902344 1042.726562 Z M 445.214844 1187.660156 C 442.289062 1179.472656 430.582031 1182.074219 431.417969 1191.21875 C 432.289062 1200.726562 447.105469 1198.097656 445.214844 1187.660156 Z M 349.492188 430.148438 C 348.582031 441.140625 356.425781 427.9375 357.695312 424.773438 C 358.480469 422.816406 362.746094 410.839844 358.914062 409.816406 C 355.039062 408.78125 351.332031 421.296875 350.761719 423.601562 C 350.199219 425.851562 349.835938 427.859375 349.492188 430.148438 Z M 449.996094 1241.730469 C 457.933594 1241.9375 462.757812 1234.398438 457.3125 1227.796875 C 452.453125 1221.914062 439.355469 1225.714844 442.921875 1236.15625 C 444.085938 1239.5625 446.542969 1241.199219 449.996094 1241.730469 Z M 1190.578125 472.582031 C 1187.519531 471.621094 1184.640625 474.882812 1185.128906 478.46875 C 1185.957031 482.105469 1194.050781 499.460938 1196.773438 501.960938 C 1199.121094 504.113281 1200.800781 503.203125 1200.421875 500 C 1199.761719 494.433594 1195.375 475.144531 1190.578125 472.582031 Z M 586.296875 1213.25 C 573.433594 1215.253906 576.40625 1232.757812 588.980469 1232.144531 C 599.253906 1231.640625 601.964844 1213.15625 586.296875 1213.25 Z M 252.585938 496.527344 C 252.585938 509.941406 271.015625 509.15625 272.097656 496.359375 C 272.839844 487.539062 261.714844 483.621094 255.304688 489.386719 C 253.914062 490.636719 252.585938 494.035156 252.585938 496.527344 Z M 814.183594 664.664062 C 820.445312 658.238281 821.949219 650.492188 809.9375 656.578125 C 802.714844 660.347656 798.554688 662.261719 790.875 665.042969 C 769.152344 672.917969 795.8125 672.628906 802.398438 671.011719 C 806.816406 669.925781 809.621094 668.257812 813.183594 665.511719 Z M 1171.367188 345.011719 C 1171.300781 338.023438 1165.5625 334.234375 1159.097656 334.785156 C 1144.597656 336.015625 1147.3125 358.609375 1161.671875 356.125 C 1167.433594 355.128906 1170.628906 350.558594 1171.367188 345.011719 Z M 333.542969 380.800781 C 333.542969 385.65625 335.707031 389.867188 339.398438 392.070312 C 342.59375 393.511719 355.492188 399.824219 358.128906 399.324219 C 361.660156 398.65625 360.726562 393.421875 360.445312 390.878906 C 359.6875 384.234375 356.820312 379.445312 351.804688 375.140625 L 351.082031 374.519531 C 348.558594 372.957031 346.277344 372.371094 343.363281 372.007812 L 342.367188 371.976562 C 337.914062 371.976562 333.542969 376.347656 333.542969 380.800781 Z M 780.027344 704.039062 C 781.65625 700.335938 778.429688 699.726562 775.289062 699.367188 C 769.453125 698.707031 764.199219 699.804688 758.011719 699.113281 C 753.046875 698.558594 736.421875 694.957031 733.121094 696.429688 C 727.476562 698.945312 742.570312 708.285156 744.707031 709.367188 C 756.496094 715.316406 771.480469 715.503906 780.027344 704.039062 Z M 415.039062 1211.609375 C 423.796875 1198.851562 408.359375 1184.382812 395.964844 1192.230469 C 384.964844 1199.195312 389.359375 1218.269531 404.207031 1217.507812 C 408.785156 1217.273438 412.214844 1215.113281 415.039062 1211.609375 Z M 970.558594 1195.863281 C 979.3125 1179.003906 954.53125 1166.476562 945.402344 1181.421875 C 938.511719 1192.699219 948.214844 1205.796875 960.886719 1203.039062 C 965.332031 1202.074219 968.117188 1199.554688 970.558594 1195.863281 Z M 384.257812 466.210938 C 383.625 472.410156 387.929688 471.648438 392.410156 470.242188 C 409.101562 464.914062 417.414062 459.695312 426.0625 444.03125 C 430.644531 435.726562 427.855469 435.046875 419.757812 436.25 C 411.949219 437.585938 404.132812 441.128906 397.890625 445.980469 C 395.699219 447.78125 393.878906 449.632812 391.988281 451.734375 C 388.191406 456.027344 385.449219 460.558594 384.257812 466.210938 Z M 413.441406 1170.40625 C 411.554688 1173.894531 413.570312 1175.6875 416.988281 1176.5 C 423.261719 1177.648438 435.28125 1172.625 442.527344 1171.4375 C 460.585938 1168.484375 476.230469 1169.378906 494.191406 1172.242188 L 495.117188 1172.390625 C 497.261719 1172.738281 509.117188 1174.289062 508.410156 1170.054688 C 507.714844 1165.882812 489.453125 1162.242188 485.289062 1161.589844 C 476.175781 1160.164062 466.132812 1159.5 456.921875 1160.085938 L 456.292969 1160.136719 C 447.628906 1160.863281 418.515625 1163.730469 413.441406 1170.40625 Z M 1121.675781 496.074219 C 1112.625 492.808594 1110.816406 495.703125 1113.148438 504.421875 C 1119.058594 525.039062 1136.167969 532.65625 1155.59375 537.058594 C 1166.761719 539.589844 1162.054688 533.066406 1158.222656 527.042969 C 1147.898438 510.828125 1139.960938 502.832031 1121.675781 496.074219 Z M 405.128906 771.609375 C 404.8125 779.683594 408.167969 778.15625 414.40625 775.625 C 430.464844 768.832031 442.402344 758.222656 442.035156 739.605469 C 441.980469 736.855469 441.847656 725.976562 437.722656 726.242188 C 434.773438 726.429688 422.652344 734.328125 419.964844 736.605469 C 416.324219 739.6875 413.910156 742.820312 411.484375 746.90625 C 407.078125 754.558594 405.535156 762.890625 405.128906 771.609375 Z M 1182.984375 460.925781 C 1185.292969 473.789062 1190.035156 464.617188 1196.070312 459.300781 C 1204.878906 451.523438 1225.058594 433.5625 1217.34375 420.265625 C 1212.90625 412.621094 1201.679688 414.070312 1195.441406 418.28125 C 1188.496094 422.964844 1185.34375 430.769531 1183.234375 438.542969 C 1181.210938 446.320312 1181.652344 453.09375 1182.984375 460.925781 Z M 326.90625 979.171875 C 334.960938 976.039062 345.15625 969.144531 352.238281 964.183594 C 358.136719 960.046875 357.574219 958.453125 349.890625 957.585938 C 322.808594 954.722656 306.960938 955.859375 286.050781 974.980469 C 277.867188 982.460938 283.625 982.789062 291.570312 983.511719 C 303.121094 984.558594 312.949219 983.820312 324.023438 980.238281 C 324.996094 979.894531 325.945312 979.535156 326.90625 979.171875 Z M 420 279.390625 L 419.011719 280.480469 C 418.386719 281.175781 418.136719 281.425781 417.488281 282.070312 C 413.964844 286.429688 410.371094 290.792969 406.886719 295.179688 C 405.210938 297.53125 391.945312 317.296875 398.898438 317.914062 C 403.742188 318.339844 410.621094 306.679688 413.539062 303.074219 C 416.613281 299.285156 419.933594 295.5625 423.089844 291.824219 L 425.785156 288.808594 C 429.921875 284.722656 440.445312 273.710938 446.207031 273.726562 C 451.222656 273.742188 451 275.703125 457.5 274.179688 C 463.820312 272.460938 466.808594 267.488281 467.90625 261.367188 C 468.484375 256.671875 467.117188 252.808594 463.945312 249.363281 C 456.226562 242.898438 445.789062 242.792969 439.785156 251.421875 C 435.300781 257.863281 439.597656 261.6875 435.683594 265.792969 C 432.175781 269.476562 426.195312 273.703125 422.082031 277.441406 C 421.378906 278.082031 420.6875 278.730469 420 279.390625 Z M 1109.550781 306.691406 C 1100.601562 294.515625 1109.941406 295.191406 1106.285156 285.136719 C 1100.832031 270.136719 1074.957031 273.695312 1076.167969 293.050781 C 1076.71875 301.851562 1083.347656 304.789062 1090.804688 306.554688 C 1100.386719 308.828125 1101.230469 312.371094 1106.472656 320.441406 C 1117.605469 337.894531 1123.484375 351.585938 1130.695312 370.800781 C 1135.1875 382.765625 1139.667969 377.582031 1138.410156 367.949219 C 1136.894531 357.535156 1132.003906 344.589844 1127.5 335.046875 C 1122.304688 324.394531 1116.515625 316.183594 1109.550781 306.691406 Z M 378.539062 1000.453125 C 373.960938 1000.558594 339.839844 1001.648438 348.957031 1011.902344 C 354.371094 1017.996094 367.367188 1026.207031 375.21875 1028.632812 C 392.578125 1033.003906 406.789062 1030.015625 424.175781 1029.363281 C 449.128906 1028.425781 431.90625 1021.417969 421.140625 1015.566406 C 405.859375 1007.261719 400.609375 1003.003906 382.609375 1000.65625 C 381.480469 1000.550781 380.421875 1000.5 379.289062 1000.464844 Z M 379.210938 643.394531 C 362.570312 649.28125 350.988281 660.097656 339.550781 673.097656 C 334.019531 679.476562 337.171875 680.121094 344.597656 679.761719 C 374.539062 677.769531 396.824219 673.179688 417 649.007812 C 424.167969 640.425781 419.664062 640.449219 411.011719 640.003906 C 405.550781 639.722656 400.453125 639.710938 394.996094 640.113281 L 394.269531 640.175781 C 389.03125 640.738281 384.25 641.902344 379.210938 643.394531 Z M 716.539062 580.601562 C 731.070312 580.175781 745.089844 574.632812 756.597656 565.800781 C 769.226562 556.105469 748.125 562.339844 744.058594 562.953125 C 729.449219 565.15625 712.457031 561.039062 699.199219 554.902344 L 698.125 554.382812 C 696.414062 553.519531 695.078125 552.8125 693.355469 551.886719 C 682.421875 545.320312 676.664062 539.511719 666.960938 532.074219 C 641.804688 512.804688 664.488281 549.40625 669.464844 555.664062 C 671.289062 557.957031 673.195312 560.128906 675.148438 562.308594 C 680.082031 567.199219 681.3125 568.507812 687.054688 572.203125 C 695.441406 577.601562 706.433594 580.601562 716.539062 580.601562 Z M 527.285156 1113.433594 C 537.371094 1107.898438 541.296875 1109.113281 552.03125 1106.832031 C 563.296875 1104.433594 550.847656 1100.820312 546.820312 1099.28125 C 532.207031 1093.707031 521.722656 1091.320312 506.113281 1090.136719 C 481.695312 1089.019531 460.964844 1096.441406 444.585938 1115.015625 C 440.890625 1119.203125 436.734375 1125.109375 444.191406 1128.007812 C 452.703125 1131.3125 470.839844 1133.925781 480.015625 1132.960938 C 497.335938 1131.144531 512.375 1121.660156 527.285156 1113.433594 Z M 416.589844 402.605469 C 418.917969 401.683594 424.363281 398.035156 424.363281 394.292969 C 424.363281 389.316406 424.445312 386.042969 418.171875 382.316406 C 411.296875 378.328125 408.171875 378.464844 400.355469 378.757812 C 394.21875 379.394531 394.148438 379.996094 388.765625 381.59375 C 376.101562 385.34375 390.964844 372.816406 393.554688 371.050781 C 396.289062 369.367188 398.699219 368.773438 401.84375 368.335938 C 404.28125 368.28125 406.820312 368.488281 409.257812 368.625 C 410.972656 368.710938 412.671875 368.792969 414.386719 368.84375 L 418.136719 368.863281 C 429.890625 368.6875 446.746094 362.507812 452.375 351.523438 C 456.582031 343.3125 451.582031 334.824219 442.265625 334.070312 C 433.3125 333.585938 430.492188 335.761719 423.089844 339.402344 C 414.046875 343.851562 419.058594 334.71875 413.445312 331.417969 L 412.34375 330.875 L 411.097656 330.492188 C 399.140625 329.769531 390.988281 339.210938 392.792969 350.796875 C 393.71875 357.15625 393.34375 360.972656 387.609375 364.808594 C 382.855469 367.988281 382.65625 364.710938 382.824219 360.734375 C 382.917969 359.171875 383.128906 357.59375 383.257812 356.027344 C 383.785156 347.28125 383.160156 341.285156 379.957031 333.070312 L 379.570312 332.175781 C 372.339844 317.738281 357.035156 319.484375 353.351562 333.144531 C 349.820312 353.25 358.457031 359.664062 368.34375 374.890625 C 372.558594 383.46875 372.25 384.011719 368.136719 392.402344 C 364.839844 399.742188 363.152344 405.292969 372.691406 397.878906 C 374.273438 396.488281 375.019531 395.835938 376.980469 394.960938 C 381.195312 393.765625 386.488281 396.578125 390.253906 398.304688 L 391.019531 398.640625 L 391.917969 398.992188 C 398.679688 401.363281 409.617188 405 416.589844 402.605469 Z M 1152.46875 400 C 1153.09375 414.3125 1154.523438 414.878906 1158.390625 427.824219 C 1164.304688 447.605469 1143.460938 417.890625 1141.054688 415.058594 C 1134.421875 407.25 1129.023438 401.90625 1119.890625 397.007812 C 1116.570312 395.511719 1113.6875 394.75 1110.128906 394.066406 C 1105.09375 393.292969 1101.078125 393.746094 1097.046875 396.996094 C 1088.1875 405.15625 1094.625 426.058594 1117.121094 430.675781 C 1123.558594 431.5 1145.871094 431.929688 1148.664062 438.308594 C 1150.632812 442.804688 1136.953125 442.285156 1134.082031 442.945312 C 1128.6875 444.1875 1126.105469 446.722656 1122.457031 450.636719 C 1121.023438 452.578125 1120.449219 454.007812 1119.71875 456.273438 C 1116.722656 467.152344 1127.425781 472.960938 1137.40625 471.402344 C 1146.839844 468.933594 1147.910156 466.816406 1155.851562 463.382812 C 1167.832031 458.511719 1167.011719 461.550781 1175.3125 467.890625 C 1183.628906 474.234375 1179.25 464.492188 1176.972656 460.878906 C 1171.542969 452.257812 1168.554688 450.929688 1172.296875 440.109375 L 1173.628906 436.550781 C 1175.519531 432.003906 1178.078125 427.390625 1180.21875 422.898438 C 1183.628906 414.703125 1185.417969 405.878906 1184.511719 396.972656 C 1183.097656 386.445312 1175.757812 378.375 1164.550781 380.5625 C 1160.644531 381.324219 1158.84375 383.480469 1156.609375 386.496094 C 1153.507812 391.039062 1152.625 394.519531 1152.46875 400 Z M 1031.929688 1301.59375 C 1063.136719 1314.617188 1095.867188 1313.207031 1127.625 1303.09375 C 1134.992188 1300.683594 1141.730469 1297.425781 1148.660156 1294 C 1155.925781 1290.398438 1163.050781 1285.269531 1169.589844 1280.679688 C 1180.433594 1272.699219 1192.457031 1260.882812 1200.148438 1249.828125 C 1210.382812 1235.121094 1218.195312 1217.488281 1221.4375 1199.832031 C 1221.65625 1198.59375 1221.847656 1197.363281 1222.039062 1196.121094 C 1226.960938 1157.304688 1210.839844 1117.757812 1176.523438 1097.515625 C 1159.996094 1087.871094 1137.957031 1079.554688 1118.664062 1079.386719 C 1101.804688 1079.238281 1133.277344 1090.933594 1135.675781 1092.121094 C 1163.238281 1105.765625 1183.289062 1138.453125 1186.242188 1168.640625 C 1188.636719 1198.632812 1181.746094 1220.8125 1163.824219 1244.941406 C 1137.761719 1279.007812 1096.691406 1295.449219 1054.285156 1290.164062 C 1027.855469 1286.222656 1011.910156 1278.214844 992.980469 1259.429688 C 987.050781 1253.546875 969.355469 1236.582031 981.472656 1258.4375 C 992.285156 1277.941406 1011.847656 1292.636719 1031.929688 1301.59375 Z M 1270.957031 873.761719 C 1275.421875 884.125 1274.800781 886.378906 1268.007812 895.257812 C 1263.46875 900.976562 1253.457031 911.839844 1245.753906 911.847656 C 1242.550781 910.636719 1246.574219 899.546875 1247.203125 896.695312 C 1249.519531 886.1875 1250.035156 875.238281 1248.34375 864.605469 C 1247.234375 859.917969 1244.585938 851.226562 1238.457031 857.125 C 1236.105469 859.390625 1235.308594 862.382812 1234.980469 865.511719 C 1235.398438 879.746094 1238.480469 884.949219 1235.398438 900.625 C 1230.347656 926.277344 1213.175781 943.414062 1191.789062 956.867188 C 1180.609375 963.480469 1187.625 953.238281 1190.496094 948.929688 C 1196.34375 940.132812 1200.304688 935.859375 1204.289062 925.636719 C 1208.238281 914.292969 1210.6875 895.878906 1203.824219 885.3125 C 1199.515625 878.683594 1195.175781 885.730469 1192.140625 889.839844 C 1186.347656 897.679688 1182.566406 905.679688 1179.5625 914.921875 C 1173.421875 934.863281 1181.476562 948.316406 1172.609375 962.980469 C 1154.824219 987.515625 1138.078125 989.089844 1114.339844 1003.207031 C 1099.894531 1011.796875 1123.804688 1006.082031 1127.382812 1005.46875 C 1152.488281 1001.175781 1151.710938 1004.902344 1175.628906 1010.035156 C 1197.003906 1014.21875 1217.765625 1012.378906 1234.792969 997.453125 C 1245.203125 988.324219 1234.199219 987.78125 1225.953125 986.5 C 1200.742188 982.640625 1196.515625 984.140625 1172.269531 990.257812 C 1150.625 995.691406 1166.824219 985.773438 1174.117188 979.957031 C 1187.695312 969.515625 1195.730469 962.859375 1213.214844 963.785156 C 1238.148438 965.394531 1255.699219 969.277344 1276.515625 951.597656 C 1284.136719 945.121094 1281.320312 944.503906 1272.773438 942.296875 C 1260.488281 939.128906 1251.242188 938.828125 1239.011719 942.484375 C 1237.46875 942.964844 1235.933594 943.472656 1234.394531 943.976562 C 1219.003906 948.691406 1226.246094 941.933594 1232.59375 935.472656 C 1256.757812 912.484375 1266.621094 919.691406 1295.953125 923.632812 C 1311.429688 925.714844 1324.777344 923.417969 1338.167969 915.242188 C 1341.742188 912.933594 1349.253906 904.796875 1349.671875 899.761719 C 1347.640625 898.402344 1344.492188 896.238281 1342.03125 898.3125 C 1335.277344 903.992188 1327.859375 909.222656 1319.027344 911.152344 C 1311.699219 912.402344 1287.824219 913.140625 1281.945312 909.457031 C 1276.117188 905.8125 1295.195312 902.675781 1296.335938 902.535156 C 1301.640625 901.863281 1307.144531 901.769531 1312.5 901.351562 C 1314.21875 901.199219 1315.679688 900.984375 1317.371094 900.675781 C 1325.746094 898.972656 1333 894.929688 1339.460938 889.546875 L 1343.976562 884.722656 C 1347.820312 879.457031 1345.417969 876.753906 1340.324219 873.820312 C 1324.503906 866.765625 1307.625 874.9375 1295.769531 885.710938 C 1292.390625 888.78125 1276.574219 902.738281 1284.5 887.546875 C 1295.734375 866.761719 1318.390625 856.164062 1324.597656 831.492188 C 1325.667969 826.886719 1325.683594 823.195312 1324.40625 818.640625 C 1323.40625 816.246094 1321.375 815.171875 1319.054688 815.171875 C 1313.246094 816.699219 1312.824219 824.53125 1311.335938 829.347656 C 1308.84375 837.394531 1300.597656 856.949219 1292.78125 860.476562 C 1289.628906 861.054688 1290.0625 858.238281 1290.335938 855.621094 C 1291.023438 849.027344 1292.324219 845.78125 1291.851562 838.519531 C 1291.589844 834.507812 1288.558594 815.488281 1283.363281 816.347656 C 1278.847656 817.097656 1269.808594 828.824219 1267.613281 833.253906 C 1260.925781 846.753906 1265.511719 860.765625 1270.957031 873.761719 Z M 531.027344 1235.199219 C 526.796875 1233.964844 523.375 1231.925781 519.746094 1229.492188 L 519.027344 1228.878906 C 511.253906 1221.234375 512.40625 1210.871094 519.96875 1203.476562 C 539.167969 1191.507812 548.988281 1204.636719 565.703125 1212.230469 C 569.460938 1213.9375 576.292969 1215.496094 576.636719 1209.445312 C 576.894531 1204.878906 571.210938 1199.773438 568.351562 1196.566406 C 559.800781 1186.132812 545.492188 1168.140625 556.859375 1154.964844 C 561.832031 1149.203125 571.226562 1146.683594 578.402344 1149.691406 C 595.28125 1156.769531 591.21875 1181.738281 590.574219 1196.175781 L 590.542969 1197.011719 C 590.5 1200 590.484375 1208.53125 595.40625 1207.441406 C 598.886719 1206.675781 601.46875 1197.972656 602.753906 1194.867188 C 606.867188 1185.53125 618.554688 1159.777344 631.933594 1169.34375 L 632.753906 1169.929688 C 640.890625 1176.222656 636.027344 1188.707031 630.898438 1195.285156 C 628.617188 1198.097656 626.117188 1200.25 623.273438 1202.46875 C 619.417969 1205.019531 604.84375 1213.847656 603.816406 1217.664062 C 601.796875 1225.144531 615.90625 1221.0625 619.078125 1220.074219 C 626.664062 1217.71875 634.039062 1214.300781 641.355469 1211.207031 C 650.960938 1207.378906 657.804688 1205.289062 666.722656 1212.039062 C 674.28125 1220.34375 676.628906 1231.191406 667.496094 1239.285156 C 650.351562 1253.441406 629.265625 1238.238281 613.195312 1230.550781 C 599.441406 1226.289062 601.476562 1231.925781 608.042969 1240.636719 C 614.757812 1249.546875 634.136719 1260.660156 630.9375 1278.722656 C 629.066406 1289.273438 613.675781 1297.234375 600.886719 1278.152344 C 593.542969 1267.199219 596.808594 1253.207031 591.613281 1242.089844 L 590.800781 1240.910156 C 588.273438 1238.75 587.183594 1240.550781 586.039062 1243.242188 C 579.445312 1261.078125 585.074219 1287.042969 562.519531 1295.605469 C 548.792969 1300.816406 538.824219 1290.886719 539.144531 1277.226562 L 539.179688 1275.742188 C 539.277344 1273.855469 539.53125 1272.4375 539.917969 1270.601562 C 543.265625 1256.664062 553.910156 1248.628906 565.332031 1241.269531 C 567.695312 1239.761719 578.28125 1232.90625 572.253906 1230.015625 L 570.71875 1229.484375 C 564.855469 1227.964844 552.648438 1233.707031 546.476562 1235.433594 C 540.863281 1236.691406 536.609375 1236.496094 531.027344 1235.199219 Z M 496.765625 1199.921875 C 489.253906 1212.703125 490.773438 1226.683594 499.695312 1238.371094 C 507.574219 1247.414062 508.148438 1247.105469 518.984375 1251.410156 C 531.386719 1256.335938 522.9375 1262.023438 520.652344 1272.453125 C 516.785156 1290.128906 525.28125 1306.011719 541.652344 1313.21875 C 559.128906 1319.132812 568.257812 1316.1875 580.714844 1302.941406 C 583.972656 1299.480469 589.277344 1293 594.457031 1296.511719 C 597.804688 1298.78125 600.085938 1301.316406 603.835938 1303.578125 C 605.351562 1304.289062 606.9375 1304.871094 608.5 1305.460938 L 609.4375 1305.785156 C 616.613281 1308.085938 622.53125 1307.171875 629.664062 1304.34375 C 645.109375 1297.0625 649.398438 1282.496094 644.582031 1266.796875 C 642.925781 1261.40625 643.738281 1261.46875 649.328125 1261.9375 C 670.140625 1262.480469 688.332031 1255.476562 692.652344 1232.945312 C 693.113281 1230.535156 693.152344 1228.214844 693.183594 1225.773438 L 693.183594 1224.632812 C 691.875 1205.816406 681.425781 1195.511719 663.433594 1191.4375 C 652.554688 1188.84375 657.640625 1187.769531 659.605469 1177.847656 C 661.160156 1169.988281 658.921875 1164.59375 655.082031 1157.90625 C 647.871094 1147.742188 636.003906 1144.753906 624.15625 1146.90625 C 617.417969 1148.128906 611.269531 1154.292969 607.085938 1154.882812 C 603.488281 1155.394531 602.746094 1150.242188 601.640625 1147.476562 C 593.652344 1127.453125 566.421875 1123.589844 549.308594 1134.382812 C 537.347656 1141.929688 531.714844 1152.574219 532.972656 1166.730469 C 533.28125 1169.746094 535.558594 1176.183594 534.296875 1178.359375 C 532.917969 1180.734375 526.375 1180.761719 523.527344 1181.332031 C 511.582031 1183.730469 503.445312 1189.902344 496.765625 1199.921875 Z M 1261.179688 505.964844 C 1277.089844 484.226562 1261.230469 525.859375 1259.800781 530.183594 C 1252.972656 551.132812 1248.253906 571.375 1242.785156 592.601562 C 1234.664062 624.128906 1236.546875 572.25 1236.925781 567.492188 C 1238.910156 542.738281 1246.808594 525.917969 1261.179688 505.964844 Z M 1196.410156 617.351562 C 1193.144531 614.613281 1189.90625 612.363281 1186.304688 610.097656 C 1177.441406 605.152344 1162.019531 598.238281 1151.761719 599.65625 C 1144.0625 601.035156 1148.808594 610.964844 1150.757812 615.609375 C 1154.761719 625.171875 1160.070312 634.128906 1166.867188 641.96875 C 1188.402344 663.960938 1194.097656 664.863281 1222.46875 674.207031 C 1236.136719 678.710938 1235.460938 684.085938 1235.761719 697.414062 C 1236.019531 708.867188 1235.867188 720.363281 1235.503906 731.816406 C 1235.21875 740.644531 1234.570312 757.84375 1231.539062 765.902344 C 1228.640625 772.378906 1225.9375 753.507812 1225.535156 752.023438 C 1220.71875 735.296875 1206.773438 719.238281 1190.253906 713.296875 C 1178.820312 709.183594 1180.945312 719.5625 1181.824219 727.464844 C 1183.230469 740.15625 1185.3125 745.96875 1191.21875 757.21875 C 1196.859375 765.050781 1202.480469 774.523438 1209.960938 780.613281 C 1214.53125 784.339844 1223.351562 790.40625 1226.523438 794.933594 C 1230.03125 800.578125 1225.910156 808.007812 1223.960938 813.910156 C 1218.21875 833.25 1213.660156 856.808594 1230.710938 822.273438 C 1239.117188 805.246094 1237.855469 809.621094 1255.808594 804.4375 C 1266.984375 801.207031 1275.988281 797.335938 1285.984375 791.375 C 1294.550781 786.050781 1301.421875 780.058594 1307.648438 772.105469 C 1311.402344 767.210938 1314.816406 761.710938 1317.28125 755.273438 C 1318.648438 751.691406 1319.265625 749.167969 1320.195312 745.214844 C 1320.457031 744.101562 1324.015625 732.136719 1321.128906 732.136719 C 1305.320312 732.136719 1293.820312 738.15625 1281.902344 745.328125 C 1279.183594 746.960938 1277.09375 749.085938 1274.8125 751.210938 C 1268.921875 756.691406 1265.152344 761.332031 1260.488281 768.023438 C 1257.851562 771.886719 1246.722656 790.710938 1243.878906 791.742188 C 1241.121094 791.171875 1242.167969 785.101562 1242.414062 783.109375 C 1243.410156 775.007812 1245.394531 766.332031 1246.554688 758.007812 C 1247.757812 749.023438 1248.3125 741.585938 1248.433594 732.527344 C 1248.597656 719.863281 1253.457031 720.179688 1263.832031 715.183594 C 1275.585938 709.523438 1286.304688 701.597656 1296.375 693.371094 C 1297.410156 692.496094 1297.636719 692.511719 1298.691406 691.535156 C 1317.425781 673.847656 1329.453125 653.511719 1329.464844 627.097656 C 1329.464844 619.796875 1326.976562 621.277344 1320.777344 623.730469 C 1299.785156 632.054688 1285.261719 639.441406 1272.902344 659.445312 C 1265.488281 671.4375 1262.085938 683.101562 1256.613281 695.652344 C 1247.1875 717.261719 1247.867188 692.722656 1247.378906 684.304688 C 1246.703125 672.738281 1245.496094 661.410156 1244.046875 649.921875 C 1241.308594 625.589844 1246.34375 626.835938 1261.292969 610.140625 L 1262.433594 608.808594 C 1264.597656 606.191406 1266.714844 603.605469 1268.796875 600.921875 C 1275.703125 591.515625 1280.71875 581.214844 1285.84375 570.742188 C 1292.101562 557.941406 1296.738281 532.597656 1296.738281 518.324219 L 1296.738281 505.351562 C 1296.738281 499.289062 1295.664062 494.285156 1295.195312 488.730469 C 1294.476562 481.855469 1289.128906 450.6875 1284.765625 447.066406 C 1281.328125 444.214844 1272.671875 451.449219 1269.828125 453.589844 C 1259.039062 461.707031 1248.808594 471.8125 1241.097656 482.925781 C 1211.839844 528.308594 1211.300781 561.199219 1223.957031 612.320312 C 1224.285156 613.65625 1239.152344 671.265625 1228.492188 660.65625 L 1227.03125 658.96875 C 1219.480469 649.261719 1215.175781 637.867188 1206.855469 627.667969 C 1203.902344 624.136719 1200.933594 621.265625 1197.464844 618.253906 Z M 215.195312 782.183594 C 214.105469 781.132812 187.980469 754.34375 200.4375 759.578125 C 206.671875 762.195312 214.246094 767.4375 220.191406 771.042969 C 220.9375 771.484375 221.679688 771.929688 222.425781 772.371094 L 223.929688 773.246094 L 236.425781 782.546875 L 255.824219 801.035156 C 263.195312 809.992188 275.875 828.105469 280.277344 838.558594 C 284.253906 848.007812 271.203125 834.292969 270.066406 833.199219 C 263.617188 827.164062 257.253906 821.054688 250.714844 815.105469 C 248.980469 813.539062 247.242188 811.980469 245.496094 810.429688 C 243.792969 808.925781 242.472656 807.917969 240.6875 806.238281 C 232.175781 798.230469 223.613281 790.292969 215.195312 782.1875 Z M 251.304688 587.355469 C 249.210938 584.679688 245.382812 577.785156 243.652344 574.703125 C 243.179688 573.867188 232.820312 556.320312 239.625 559.445312 C 244.523438 561.691406 247.792969 564.722656 253.519531 566.953125 C 260.78125 569.738281 270.613281 572.082031 276.976562 575.796875 C 295.664062 589.359375 303.679688 602.570312 304.511719 625.875 C 304.34375 636.558594 300.0625 630.722656 295.144531 626.394531 L 294.386719 625.746094 C 289.753906 622.136719 284.851562 618.828125 279.988281 615.523438 C 275.75 612.664062 270.113281 607.726562 266.222656 604.25 C 261.648438 600.167969 255.210938 592.304688 251.304688 587.355469 Z M 379.523438 539.789062 C 388.398438 535.730469 386.152344 538.433594 381.992188 544.753906 C 375.636719 554.410156 369.289062 564.035156 363.023438 573.75 C 361.582031 575.917969 360.300781 577.445312 358.894531 579.484375 C 354.707031 585.566406 348.789062 594.394531 344.289062 599.648438 C 343.402344 600.6875 342.964844 600.945312 342.066406 602.09375 C 336.140625 609.109375 330.484375 615.753906 324.730469 622.9375 C 319.425781 629.175781 318.738281 626.441406 319.640625 619.984375 C 321.953125 604.574219 324.308594 585.0625 332.828125 571.824219 C 343.472656 555.265625 362.355469 547.617188 379.523438 539.789062 Z M 279.769531 453.777344 L 286.527344 463.621094 C 287.429688 464.816406 288.039062 465.296875 288.917969 466.425781 C 308.40625 490.488281 314.605469 496.707031 314.941406 528.972656 C 315 534.777344 315.019531 549.121094 307.984375 536.664062 C 306.375 533.8125 304.613281 530.941406 303.054688 528.136719 C 301.285156 524.960938 300.957031 522.777344 300.386719 519.226562 C 299.785156 514.042969 298.707031 511.648438 293.796875 509.476562 C 284.957031 506 276.289062 514.230469 278.914062 523.304688 C 282.507812 531.011719 290.394531 530.964844 296.148438 538.867188 C 302.117188 547.875 311.394531 566.25 311.148438 577.027344 C 310.835938 583.460938 308.421875 590.375 303.273438 581.441406 C 300.277344 576.246094 299.230469 573.859375 295.140625 569.152344 C 290.59375 563.917969 285.539062 559.917969 279.859375 555.996094 C 278.699219 555.226562 277.527344 554.46875 276.359375 553.714844 L 265.386719 547.558594 C 257.765625 543.496094 248.140625 536.953125 242.066406 530.921875 C 231.625 519.8125 230.1875 514.089844 223.707031 501.09375 C 218.632812 490.917969 217.777344 497.777344 215.828125 504.835938 C 210.671875 523.546875 205.472656 538.972656 205.363281 558.910156 L 205.359375 559.84375 C 205.359375 583.953125 212.910156 602.691406 227.308594 619.890625 C 230.820312 624.082031 235.175781 627.628906 239.449219 631.101562 C 258.742188 645.398438 271.714844 646.558594 294.355469 650.445312 C 304.148438 652.125 301.75 655.726562 300.609375 663.988281 C 299.199219 674.214844 298.074219 684.8125 297.171875 695.097656 C 296.664062 701.539062 296.71875 706.957031 296.589844 713.328125 C 296.339844 725.886719 291.925781 715.265625 289.03125 710.691406 C 284.257812 703.140625 276.9375 694.242188 270.664062 687.859375 C 268.589844 685.957031 241.796875 663.644531 246.480469 677.617188 L 246.871094 678.785156 C 250.683594 689.039062 263.441406 701.042969 270.804688 709.488281 C 281.59375 722.292969 289.136719 734.070312 295.320312 749.691406 C 301.207031 765.121094 302.609375 784 306.894531 800.304688 C 317.859375 839.675781 330.019531 870.589844 350.351562 906.140625 C 362.46875 927.328125 342.042969 905.214844 337.5625 900.929688 C 334.726562 898.3125 332.199219 895.183594 329.523438 892.367188 C 324.417969 887.234375 318.671875 879.753906 314.175781 873.972656 C 299.898438 855.617188 299.84375 848.582031 294.015625 826.839844 C 292.644531 821.757812 291.269531 816.675781 289.894531 811.597656 C 287.492188 804.519531 283.519531 796 279.675781 789.636719 C 272.671875 778.050781 266.703125 770.558594 258.140625 760.3125 C 256.234375 758.03125 253.777344 756.285156 251.671875 754.328125 L 247.695312 750.519531 C 247.046875 749.933594 247.367188 750.21875 246.863281 749.796875 C 246.097656 749.148438 245.726562 748.8125 244.917969 748.105469 C 243.71875 747.058594 242.714844 746.449219 241.386719 745.410156 C 232.917969 738.78125 223.734375 732.992188 214.191406 727.976562 C 205.699219 723.515625 196.046875 720.433594 186.878906 717.40625 L 176.878906 714.429688 C 173.226562 713.53125 156.527344 710.101562 153.9375 711.523438 C 150.316406 713.515625 153.316406 723.734375 153.988281 727.257812 C 155.554688 735.484375 157.136719 742.855469 159.628906 750.882812 C 162.226562 759.03125 164.554688 766.523438 168.171875 773.996094 C 168.945312 775.589844 169.351562 776.886719 170.0625 778.332031 C 174.816406 787.992188 182.96875 801.957031 189.914062 809.335938 C 192.128906 811.6875 193.941406 813.785156 195.941406 816.285156 C 201.269531 822.785156 209.90625 830.859375 216.746094 835.792969 C 221.207031 839.007812 224.710938 841.714844 229.472656 844.6875 C 249.089844 856.578125 260.304688 860.429688 282.769531 864.453125 C 290.933594 865.914062 293.019531 870.714844 297.789062 876.730469 C 302.847656 883.109375 308.050781 889.414062 313.179688 895.738281 C 320.5625 903.71875 326.632812 910.207031 334.957031 917.328125 C 346.476562 928.121094 335.726562 923.957031 328.757812 921.171875 L 327.121094 920.511719 C 324.78125 919.5625 322.460938 918.554688 320.167969 917.503906 C 314.617188 914.898438 309.246094 912.003906 303.964844 908.898438 L 303.1875 908.441406 C 300.21875 906.671875 297.699219 905.066406 294.625 903.390625 C 293.65625 902.859375 292.824219 902.359375 291.933594 901.933594 C 290.765625 901.378906 290.269531 901.234375 289.074219 900.636719 C 288.011719 900.105469 287.304688 899.644531 286.390625 899.171875 C 285.34375 898.621094 284.6875 898.390625 283.628906 897.78125 C 279.847656 895.609375 275.777344 894.488281 271.421875 892.859375 C 267.371094 891.347656 262.546875 890.164062 257.980469 889.175781 C 240.5 885.917969 221.910156 886.832031 205.285156 893.476562 C 194.375 897.839844 199.121094 900.359375 206.082031 906.398438 C 215.851562 914.875 222.695312 921.203125 234.421875 927.269531 C 237.984375 929.019531 241.558594 931.210938 245.246094 932.527344 C 265.242188 939.675781 277.390625 940.761719 299.292969 940.761719 C 304.039062 940.761719 309.023438 940.421875 312.945312 939.882812 C 320.042969 938.90625 354.480469 933.972656 359.101562 936.003906 C 363.863281 938.34375 372.476562 947.492188 376.71875 952.070312 L 377.46875 952.882812 L 395.691406 972.546875 C 401.085938 977.945312 409.15625 986.867188 414.65625 991.464844 C 426.941406 1001.832031 437.121094 1011.628906 450.296875 1021.300781 C 460.535156 1028.816406 471.027344 1035.585938 481.972656 1042.015625 C 492.820312 1048.183594 484.484375 1047.25 477.644531 1047.183594 C 455.0625 1047.164062 444.320312 1052.050781 423.257812 1056.105469 C 411.472656 1058.371094 404.601562 1057.710938 393.171875 1054.023438 C 386.722656 1051.742188 380.636719 1049.441406 374.039062 1047.480469 L 372.824219 1047.121094 L 372.316406 1046.972656 L 371.4375 1046.722656 C 359.292969 1043.691406 342.273438 1044.226562 332.394531 1052.800781 C 323.097656 1060.875 336.621094 1065.710938 342.996094 1067.929688 C 358.714844 1073.398438 362.523438 1069.636719 377.511719 1066.789062 L 378.652344 1066.582031 C 380.625 1066.292969 393.527344 1065.039062 389.71875 1070.136719 C 387.761719 1072.761719 376.1875 1079.164062 372.703125 1081.171875 C 356.917969 1089.761719 347.378906 1092.371094 330.949219 1084.539062 C 314.09375 1076.226562 295.472656 1063.941406 276.050781 1071.964844 C 261.023438 1078.175781 266.445312 1088.984375 279 1094.15625 C 291.371094 1099.253906 300.90625 1095.503906 313.359375 1096.03125 C 324.285156 1096.492188 305.992188 1103.316406 304.027344 1104.355469 C 294.632812 1109.320312 286.070312 1116.601562 284.371094 1127.6875 C 283.296875 1134.710938 288.394531 1139.621094 294.914062 1140.671875 C 306.394531 1142.523438 319.941406 1135.816406 327.835938 1127.84375 C 335.992188 1119.601562 345.992188 1105 356.023438 1100.246094 C 357.832031 1099.386719 359.148438 1099.011719 361.136719 1098.839844 C 367.441406 1098.894531 356.421875 1111.128906 354.992188 1113.242188 C 346.320312 1126.292969 338.632812 1148.753906 348.003906 1163.152344 C 352.671875 1170.316406 360.421875 1168.164062 365.621094 1163.070312 C 375.582031 1153.304688 373.746094 1140.210938 372.058594 1127.875 C 370.050781 1113.207031 372.066406 1104.828125 382.011719 1093.332031 C 386.03125 1088.796875 391.144531 1083.550781 395.796875 1079.667969 L 396.285156 1079.261719 C 401.933594 1074.625 408.148438 1070.648438 415.402344 1069.195312 C 421.953125 1068.277344 420.753906 1071.277344 417.835938 1075.40625 C 411.640625 1083.890625 409.488281 1085.699219 411.046875 1096.945312 C 413.226562 1112.679688 421.097656 1092.820312 423.347656 1088.71875 C 427.75 1080.675781 432.675781 1075.074219 439.703125 1069.234375 C 441.71875 1067.648438 442.636719 1066.96875 444.960938 1065.667969 C 462.113281 1057.011719 485.726562 1056.300781 504.179688 1060.742188 C 532.410156 1069.289062 558.074219 1082.191406 587.21875 1087.890625 C 588.417969 1088.125 626.382812 1095.71875 617.007812 1086.601562 C 613.105469 1082.8125 598.632812 1079.074219 592.5625 1076.714844 C 571.882812 1068.679688 561.757812 1061.855469 555.03125 1040.089844 C 554.550781 1038.527344 554.09375 1036.953125 553.632812 1035.382812 C 549.59375 1021.320312 548.820312 1013.25 540.742188 1000.160156 C 540.167969 999.285156 539.585938 998.449219 538.980469 997.59375 C 535.359375 992.550781 527.109375 984.414062 521.765625 981.667969 C 516.425781 978.921875 516.964844 985.597656 516.855469 989.25 C 516.40625 1010.171875 521.511719 1026.34375 535.613281 1042.097656 C 541.964844 1048.46875 569.503906 1069.582031 539.667969 1056.21875 C 535.628906 1054.410156 531.742188 1052.457031 527.769531 1050.53125 C 524.769531 1049.121094 521.839844 1047.679688 518.902344 1046.152344 L 518.136719 1045.75 C 514.226562 1043.597656 510.390625 1041.695312 506.875 1039.363281 C 486.027344 1025.734375 476.949219 1020.507812 469.9375 994.917969 C 466.324219 981.730469 465.074219 970.828125 459.371094 957.898438 C 452.785156 943.925781 443.695312 934.25 431.695312 924.675781 C 429.628906 923.027344 420.394531 915.230469 417.929688 918.585938 C 414.917969 922.6875 419.328125 940.742188 420.898438 945.648438 C 421.707031 948.160156 422.589844 950.515625 423.628906 952.9375 C 432.398438 972.320312 442.046875 982.273438 455.988281 997.621094 C 456.464844 998.144531 467.007812 1010.789062 462.136719 1009.242188 C 457.019531 1007.117188 436.839844 988.410156 431.496094 983.449219 L 429.867188 981.960938 C 429.753906 981.859375 429.445312 981.558594 429.332031 981.460938 C 422.277344 975.058594 411.953125 965.664062 406.238281 958.300781 C 404.746094 956.382812 402.226562 953.964844 400.488281 951.933594 C 397.96875 948.988281 395.566406 945.941406 393.15625 942.902344 L 381.929688 928.183594 C 380.453125 926.410156 379.566406 924.945312 378.277344 923.011719 C 367.554688 906.46875 357.859375 890.304688 349.460938 872.425781 C 345.335938 863.851562 340.136719 856.113281 343.011719 846.328125 C 345.652344 837.332031 352.582031 826.089844 358.082031 818.429688 C 363.058594 811.804688 366.933594 804.4375 371.210938 797.308594 C 375 790.984375 379.171875 779.769531 380.480469 772.328125 C 383.585938 753.378906 382.582031 732.6875 373.246094 715.496094 C 368.597656 706.9375 365.769531 712.664062 362.050781 718.320312 C 358.667969 723.460938 355.046875 728.484375 351.589844 733.589844 C 349.054688 737.339844 346.488281 742.101562 344.441406 746.148438 C 336.261719 762.46875 332.503906 779.703125 332.503906 801.160156 C 332.566406 809.035156 333.652344 816.839844 333.644531 824.464844 C 333.625 842.804688 326.417969 814.660156 325.613281 811.84375 C 325.046875 809.863281 324.488281 807.878906 323.929688 805.898438 C 322.019531 799.0625 320.316406 792.222656 318.792969 785.289062 C 313.429688 760.449219 311.332031 743.078125 311.238281 717.597656 C 311.230469 715.003906 311.230469 712.414062 311.226562 709.820312 C 311.277344 693.597656 313.464844 677.34375 315.554688 661.261719 C 315.960938 658.128906 317.144531 648.300781 318.589844 645.800781 C 321.582031 641.660156 331.738281 638.746094 337.070312 636.210938 C 343.253906 633.277344 349.214844 630.601562 355.113281 627.078125 C 369.296875 618.492188 381.84375 608.613281 392.828125 596.289062 C 399.089844 589.265625 404.421875 581.070312 408.632812 572.65625 C 421.441406 544.929688 424.285156 518.808594 422.304688 488.617188 C 421.535156 477.347656 418.785156 480.523438 412.859375 486.875 C 405.828125 494.53125 397.835938 500.988281 388.734375 506.050781 C 378.164062 511.359375 368.09375 516.773438 358.148438 523.210938 C 350.207031 528.804688 347.167969 530.730469 340.351562 537.984375 C 332.132812 546.511719 331.980469 544.84375 335.027344 534.347656 C 340.96875 513.867188 348.914062 495.023438 358.179688 475.871094 C 360.15625 471.824219 373.671875 445.089844 372.453125 442.921875 C 370.757812 439.890625 355.839844 457.503906 353.914062 459.988281 C 349.714844 465.402344 346.101562 470.921875 342.84375 476.953125 C 341.820312 478.898438 340.867188 480.847656 339.929688 482.835938 C 336.394531 490.367188 333.179688 497.464844 330.355469 505.3125 C 327.179688 514.1875 325.828125 518.550781 324.144531 506 C 322.574219 493.453125 320.808594 480.96875 319.234375 468.457031 C 318.539062 462.9375 317.972656 457.394531 317.5 451.851562 C 316.359375 438.152344 313.136719 424.929688 308.554688 412.535156 C 304.3125 401.316406 299.519531 392.925781 294.257812 382.398438 C 292.710938 379.199219 287.863281 366.230469 285.339844 364.996094 C 282.480469 363.59375 280.625 369.402344 279.851562 371.28125 C 270.542969 394.28125 266.511719 418.898438 274.640625 442.921875 C 275.976562 446.871094 277.511719 450.265625 279.765625 453.777344 Z M 861.949219 748.140625 C 853.605469 753.21875 871.515625 731.429688 872.132812 730.523438 C 887.265625 706.621094 888.703125 696.011719 897.207031 670.328125 C 908.460938 636.363281 899.378906 682.410156 897.269531 689.3125 C 891.316406 708.8125 879.714844 733.871094 863.675781 746.953125 Z M 1139.492188 856.171875 C 1139.492188 833.242188 1136.539062 814.210938 1133.046875 794.632812 C 1129.019531 772.054688 1122.425781 749.527344 1115.164062 727.925781 L 1108.578125 709.082031 C 1103.003906 692.613281 1095.457031 678.40625 1088.722656 662.628906 C 1079.183594 640.277344 1093.65625 661.125 1097.644531 667.167969 C 1100.996094 672.257812 1104.347656 677.351562 1107.742188 682.410156 C 1114.648438 693.851562 1119.390625 702.308594 1125.480469 714.492188 C 1136.609375 736.753906 1142.421875 752.429688 1149.417969 776.1875 C 1154.144531 792.246094 1157.421875 814.976562 1157.636719 832.316406 C 1157.671875 835.261719 1158.1875 835.910156 1158.195312 839.023438 C 1158.207031 845.4375 1157.199219 854.589844 1157.136719 859.28125 L 1154.839844 878.261719 C 1151.691406 893.628906 1151.035156 897.753906 1145.722656 912.21875 C 1141.921875 921.636719 1121.054688 963.113281 1112.890625 965.589844 C 1107.730469 967.152344 1121.648438 942.320312 1122.566406 940.253906 C 1125.710938 933.191406 1128.121094 926.0625 1130.390625 918.683594 C 1136.722656 897.605469 1139.023438 878.101562 1139.492188 856.167969 Z M 1063.207031 789.742188 C 1063.207031 776.667969 1061.796875 762.851562 1061.644531 751.859375 C 1061.570312 746.355469 1060.390625 739.199219 1059.664062 734.121094 C 1055.675781 706.210938 1052.921875 696.105469 1045.34375 669.5625 C 1043.820312 664.238281 1042.28125 659.753906 1040.566406 654.617188 C 1035.101562 638.226562 1032.132812 633.378906 1026.433594 619.445312 C 1025.390625 616.898438 1024.28125 615.082031 1023.253906 612.769531 C 1020.804688 607.261719 1018.910156 604.453125 1016.492188 599.808594 C 1009.925781 587.785156 1002.652344 576.941406 995.808594 565.261719 C 983.816406 544.230469 998.9375 558.371094 1006.046875 564.980469 C 1009 567.726562 1011.921875 570.632812 1014.929688 573.300781 C 1015.6875 573.953125 1016.417969 574.59375 1017.15625 575.273438 L 1022.886719 581.476562 C 1023.980469 582.78125 1024.398438 583.160156 1025.472656 584.601562 C 1033.105469 594.878906 1033.425781 596.109375 1039.75 606.652344 L 1044.027344 614.308594 C 1060.460938 643.917969 1071.328125 675.675781 1082.730469 707.421875 L 1095.894531 753.9375 C 1097.429688 760.285156 1098.921875 766.863281 1100.058594 773.648438 C 1104.199219 798.453125 1105.875 820.332031 1101.984375 845.644531 C 1099.152344 863.253906 1095.425781 875.414062 1087.597656 891.457031 C 1081.816406 903.089844 1075.574219 911.84375 1067.65625 921.859375 L 1048.28125 942.445312 C 1047.082031 943.5 1046.644531 943.589844 1045.425781 944.777344 L 1034.359375 953.949219 C 1024.359375 961.800781 1024.820312 961.417969 1014.121094 968.480469 L 1001.617188 976.21875 C 999.132812 977.695312 997.460938 978.46875 994.871094 979.851562 L 988.695312 983.539062 C 984.324219 986.121094 980.269531 988.46875 975.675781 990.753906 C 972.179688 992.492188 965.699219 996.589844 962.527344 997.328125 C 963.171875 994.914062 971.394531 989.957031 973.269531 988.351562 C 983.429688 979.660156 993.894531 970.234375 1003.148438 960.621094 L 1031.847656 921.859375 C 1037.835938 911.675781 1042.714844 899.898438 1047.125 888.871094 C 1048.808594 884.652344 1050.605469 879.152344 1051.976562 874.519531 C 1059.953125 847.507812 1063.207031 818.140625 1063.207031 789.742188 Z M 768.644531 439.132812 C 778.195312 432.777344 791.699219 422.359375 799.957031 414.398438 C 804.953125 408.351562 827.792969 379.875 831.902344 377.324219 C 830.507812 384.882812 821.175781 399.15625 816.523438 405.703125 C 810.5625 413.601562 803.691406 420.761719 796.601562 427.648438 L 787.851562 434.984375 C 757.453125 458.496094 736.894531 465.980469 700.746094 477.035156 C 700.679688 477.054688 684.195312 482.402344 686.761719 479.695312 L 687.214844 479.339844 C 691.652344 476.152344 710.007812 469.984375 717.503906 466.707031 C 735.460938 458.851562 752.222656 449.828125 768.644531 439.132812 Z M 609.105469 470.054688 C 631.296875 461.160156 653.511719 453.355469 676.355469 446.3125 C 679.484375 445.351562 682.605469 444.378906 685.722656 443.398438 L 708.125 436.21875 C 722.800781 432.351562 746.089844 421.832031 759.960938 414.359375 C 773.355469 407.148438 772.144531 406.730469 782.234375 399.789062 C 784.007812 398.566406 784.714844 397.972656 786.382812 396.671875 C 798.210938 384.761719 806.902344 377.160156 816.628906 363.007812 C 823.398438 353.167969 839.945312 329.332031 824.8125 359.691406 C 819.234375 370.886719 812.878906 379.679688 804.878906 389.21875 C 803.046875 391.316406 801.960938 392.691406 799.960938 394.683594 L 777.617188 415.929688 C 772.632812 420.167969 767.105469 423.773438 761.839844 427.660156 L 755.671875 431.871094 C 748.035156 437.164062 739.75 441.140625 731.8125 445.894531 C 729.28125 447.414062 727.109375 447.992188 724.546875 449.527344 C 697.96875 464.167969 669.167969 471.648438 640.652344 481.351562 C 630.207031 484.96875 619.808594 488.816406 609.851562 493.636719 C 609.035156 494.03125 608.246094 494.441406 607.441406 494.859375 C 596.199219 500.65625 587.609375 503.953125 576.734375 511.183594 C 560.574219 522.082031 547.203125 532.257812 533.417969 546.152344 C 532.628906 547.011719 531.839844 547.867188 531.050781 548.722656 C 530.089844 549.957031 529.5 550.347656 528.59375 551.457031 L 517.046875 566.898438 C 516.175781 568.214844 515.570312 569.054688 514.757812 570.316406 C 513.964844 571.550781 513.671875 572.300781 512.882812 573.632812 C 505.886719 585.46875 500.242188 598.464844 497.222656 611.941406 L 494.046875 630.5625 C 492.382812 647.761719 494.445312 655.425781 497.0625 671.898438 C 500.558594 693.929688 488.265625 664.769531 486.789062 660.5 C 476.402344 630.492188 476.265625 599.53125 485.011719 569.113281 C 489.761719 554.085938 494.429688 545.167969 502.476562 531.800781 L 503.734375 529.714844 C 526.519531 495.746094 550.6875 470.949219 587.289062 451.914062 C 606.582031 442.144531 636.441406 432.820312 657.753906 428.871094 C 678.976562 424.9375 626.207031 444.992188 625.320312 445.394531 C 617.832031 448.789062 610.691406 452.535156 603.566406 456.632812 L 602.53125 457.234375 C 590.476562 464.421875 578.042969 473.070312 567.875 482.769531 C 559.84375 490.535156 517.621094 530.226562 557.039062 500.78125 C 564.789062 494.992188 572.328125 489.777344 580.621094 484.78125 C 586.058594 481.671875 591.082031 478.570312 596.730469 475.773438 C 600.820312 473.785156 604.957031 471.917969 609.105469 470.054688 Z M 609.832031 387.539062 C 618.339844 387.167969 625.71875 387.042969 634.257812 386.113281 C 635.472656 385.984375 636.664062 385.867188 637.882812 385.761719 C 641.191406 385.496094 644.375 385.207031 647.664062 384.777344 C 668.878906 381.84375 682.753906 379.300781 703.292969 372.636719 C 723.054688 366.230469 738.910156 359.597656 756.28125 347.886719 C 760.738281 344.851562 762.367188 344.128906 767.230469 340.15625 C 770.566406 337.480469 772.882812 335.777344 776.199219 332.777344 C 781.003906 328.441406 787.1875 323.351562 791.472656 318.621094 L 791.914062 318.128906 L 806.476562 300.003906 C 807.460938 298.421875 807.414062 298.613281 808.464844 297.316406 C 812.648438 292.144531 816.09375 286.101562 819.59375 280.421875 C 822.027344 276.464844 824.300781 272.738281 826.386719 268.53125 C 838.902344 240.046875 842.644531 236.734375 834.558594 270.429688 C 833.523438 274.671875 832.402344 278.867188 831.179688 283.054688 L 831.03125 283.554688 L 830.914062 283.957031 L 825.695312 297.421875 C 817.59375 314.011719 810.046875 324.207031 798.371094 338.304688 L 796.824219 340.167969 C 793.597656 344.027344 788.367188 348.144531 784.660156 351.875 L 779.628906 356.1875 C 778.230469 357.28125 778.078125 357.519531 776.859375 358.605469 L 769.085938 364.847656 C 764.035156 369.386719 752.699219 376.351562 746.15625 379.796875 C 732.96875 386.710938 720.105469 392.382812 705.753906 396.480469 C 701.109375 397.785156 695.855469 399.203125 691.003906 400.414062 C 661.824219 406.707031 638.800781 408.90625 609.066406 409.742188 C 555.71875 412.09375 506.71875 423.492188 479.34375 474.0625 C 472.515625 486.875 471.152344 486.726562 471.660156 471.691406 C 472.726562 444.601562 481.664062 417.023438 506.8125 403.257812 C 533.691406 388.546875 579.3125 388.84375 609.832031 387.539062 Z M 696.796875 189.375 C 681.1875 191.085938 663.519531 194.3125 648.109375 197.554688 C 634.992188 200.328125 622.851562 203.523438 609.933594 206.917969 C 584.425781 213.621094 623.402344 197.25 626.496094 196.046875 C 648.585938 187.726562 671.429688 181.816406 695.113281 180.96875 C 698.535156 180.84375 702.15625 180.222656 705.800781 180.070312 C 713.066406 179.914062 762.167969 180.058594 757.75 182.652344 C 755.15625 184.171875 732.382812 185.839844 727.621094 186.242188 C 724.695312 186.507812 721.765625 186.78125 718.835938 187.066406 C 711.488281 187.8125 704.140625 188.574219 696.796875 189.375 Z M 985.363281 297.765625 C 984.296875 296.371094 983.644531 295.824219 982.367188 294.53125 C 981.054688 293.203125 980.785156 292.542969 979.457031 291.21875 C 978.121094 289.886719 977.648438 289.847656 976.40625 288.558594 C 975.945312 288.074219 976.148438 288.269531 975.683594 287.722656 C 975.589844 287.605469 975.3125 287.269531 975.214844 287.152344 L 964.527344 276.566406 C 960.265625 273.167969 956.484375 267.875 952.222656 264.476562 C 949.710938 262.46875 948.324219 260.984375 946.054688 258.707031 L 905.042969 220.839844 C 902.015625 217.882812 864.125 181.367188 870.800781 181.644531 C 873.492188 181.753906 893.835938 191.21875 898.050781 193.054688 C 899.917969 193.84375 901.773438 194.648438 903.628906 195.464844 C 912.359375 199.457031 920.519531 203.71875 928.765625 208.632812 C 942.292969 216.757812 951.832031 223.089844 963.992188 233.269531 L 964.96875 234.085938 C 966.230469 235.148438 966.890625 236.109375 968.160156 237.125 C 974.40625 242.128906 978.210938 246.019531 983.539062 251.84375 C 1013.886719 286.683594 1037.066406 330.53125 1041.613281 377.039062 C 1043.957031 400.984375 1030.890625 365.375 1029.523438 361.949219 C 1022.777344 345.078125 1008.972656 326.46875 997.511719 312.351562 C 996.089844 310.59375 994.648438 308.867188 993.1875 307.144531 C 990.5 304.039062 987.902344 301 985.363281 297.765625 Z M 507.515625 299.925781 C 507.933594 299.148438 508.359375 298.371094 508.785156 297.601562 C 514.167969 287.984375 520 278.664062 527.234375 270.375 L 534.25 262.34375 C 539.296875 257.359375 544.046875 252.007812 549.644531 247.636719 C 586.726562 220.3125 626.140625 210.296875 670.722656 202.625 C 684.6875 200.269531 699.300781 198.78125 713.390625 197.15625 C 740.9375 194.121094 768.679688 190.933594 796.289062 188.621094 C 833.394531 185.519531 761.90625 202.476562 757.800781 203.5 C 754.109375 204.421875 750.417969 205.320312 746.714844 206.203125 C 733.175781 209.375 719.890625 212.878906 706.164062 215.253906 C 689.167969 218.070312 672.65625 223.175781 655.925781 227.289062 C 647.78125 229.292969 634.597656 232.757812 626.742188 235.996094 L 593.988281 248.390625 C 581.410156 253.539062 569.0625 260.125 557.949219 267.875 L 538.660156 282.839844 C 537.199219 284.128906 536.492188 284.472656 535.027344 285.953125 C 532.695312 288.3125 530.171875 290.535156 528.027344 292.96875 L 524.917969 296.605469 C 522.863281 299.492188 495.605469 337.785156 516.117188 320.84375 C 519.007812 318.460938 521.828125 315.851562 524.78125 313.574219 C 528.089844 311.105469 531.480469 308.738281 534.84375 306.339844 C 539.464844 303.019531 543.941406 300.03125 548.914062 297.246094 L 583.609375 280.046875 C 600.058594 273.457031 613.636719 269.8125 630.722656 265.59375 C 642.359375 262.722656 653.007812 260.160156 664.8125 257.882812 C 671.757812 256.539062 678.71875 255.269531 685.683594 254.023438 C 695.914062 252.195312 706.503906 249.910156 716.695312 247.746094 C 720.125 247.019531 747.308594 239.554688 748.191406 241.425781 C 748.847656 245.039062 699.066406 266.40625 692.804688 268.726562 C 662.324219 279.714844 632.136719 289.425781 601.332031 299.347656 C 589.8125 303.0625 578.492188 306.984375 567.273438 311.539062 C 566.683594 311.785156 566.105469 312.039062 565.519531 312.296875 L 546.492188 320.773438 C 536.332031 326.210938 522.71875 333.453125 513.71875 340.210938 C 502.273438 348.804688 517.429688 344.6875 522.054688 343.464844 C 524.195312 342.878906 526.332031 342.226562 528.472656 341.675781 C 529.914062 341.328125 531.324219 341.042969 532.777344 340.765625 C 540.308594 339.480469 547.960938 338.769531 555.542969 337.859375 L 556.417969 337.75 C 558.339844 337.5 560.265625 337.25 562.1875 336.988281 C 580.582031 334.453125 601.5 333.742188 621.875 330.765625 C 644.6875 327.382812 670.609375 321.425781 692.222656 313.410156 L 719.355469 302.136719 C 733.464844 295.886719 756.914062 279.816406 768.21875 269.246094 C 780.558594 257.703125 754.929688 271.058594 752.449219 272.171875 C 746.175781 274.984375 739.804688 277.601562 733.488281 280.3125 C 728.402344 282.507812 723.316406 284.699219 718.234375 286.894531 L 717.429688 287.242188 C 714.085938 288.589844 710.921875 289.507812 707.503906 290.804688 C 694.058594 295.914062 673.132812 299.980469 658.421875 302.441406 C 656.589844 302.746094 654.148438 303.03125 652.566406 303.335938 C 640.183594 305.53125 626.296875 307.839844 613.855469 309.015625 C 592.953125 310.996094 624.433594 302.738281 627.191406 301.832031 C 635.214844 299.199219 643.210938 296.390625 651.214844 293.679688 C 652.726562 293.171875 653.535156 292.964844 655.171875 292.449219 L 697.144531 277.851562 C 724.910156 268.351562 751.441406 257.25 777.742188 244.238281 C 786.667969 239.769531 795.464844 235.050781 804.242188 230.300781 C 812.242188 225.972656 819.363281 221.777344 827.023438 216.875 C 841.847656 208.238281 834.652344 218.113281 829.707031 225.027344 C 826.144531 230.011719 822.46875 234.917969 818.839844 239.851562 L 818.324219 240.554688 L 817.800781 241.265625 C 816.28125 243.175781 815.023438 244.898438 813.507812 246.828125 C 804.757812 256.394531 795.984375 266.226562 787.128906 275.660156 C 780.367188 282.539062 769.246094 291.46875 761.457031 297.425781 C 753.800781 303.285156 746.207031 308.824219 738.308594 314.347656 C 733.242188 317.5625 728.367188 321.167969 722.945312 323.894531 L 716.707031 327.515625 C 701.453125 335.886719 685.433594 342.417969 668.914062 347.796875 C 661.449219 350.230469 655.085938 352.652344 647.242188 354.671875 C 644.03125 355.5 640.855469 356.214844 637.609375 356.878906 L 604.160156 362.875 C 601.070312 363.335938 598.175781 363.328125 595.195312 363.765625 C 588.574219 364.6875 581.34375 365.199219 574.601562 365.910156 C 566.4375 366.773438 558.402344 366.921875 550.234375 368.109375 C 541.953125 369.570312 533.289062 370.921875 525.082031 372.550781 C 495.589844 378.820312 469.914062 397.429688 460.773438 426.976562 C 451.765625 456.085938 454.550781 483.445312 464.179688 511.9375 C 469.390625 527.171875 473.195312 518.042969 479.824219 509.515625 C 487.058594 501.222656 499.542969 487.335938 509.433594 482.933594 C 514.382812 481.710938 496.414062 499.097656 495.273438 500.363281 C 457.757812 543.167969 444.726562 589.257812 459.871094 644.734375 C 469.839844 676.34375 486.574219 702.222656 515.914062 718.804688 C 529.140625 726.277344 523.816406 732.15625 517.773438 743.210938 C 514.902344 748.464844 511.949219 753.734375 508.859375 758.863281 C 504.609375 765.855469 500.15625 772.339844 495.078125 778.757812 C 490.515625 784.464844 486.054688 790.316406 481.574219 796.09375 C 480.089844 797.78125 478.601562 798.832031 477.21875 800.5625 L 463.652344 813.980469 C 462.59375 814.863281 462.398438 814.820312 461.332031 815.816406 C 456.753906 820.105469 449.214844 826.644531 443.972656 830.109375 C 442.796875 830.886719 442.640625 831.066406 441.617188 831.90625 C 437.445312 835.3125 432.457031 838.15625 428 841.125 L 416.925781 847.695312 C 414.726562 848.875 413.328125 849.636719 411.210938 850.804688 C 403.742188 854.410156 396.691406 857.714844 389.0625 860.996094 C 384 863.167969 380.347656 866.878906 383.097656 872.6875 C 386.511719 879.894531 399.773438 873.214844 405.046875 871.140625 C 409.484375 869.394531 413.847656 867.40625 418.21875 865.5 C 420.097656 864.683594 421.976562 863.863281 423.859375 863.046875 L 424.664062 862.695312 C 431.757812 859.773438 438.328125 855.203125 444.699219 851.078125 C 449.886719 847.722656 455.402344 844.507812 460.25 840.675781 L 471.144531 832.371094 C 472.328125 831.40625 473.308594 830.589844 474.550781 829.550781 C 475.8125 828.488281 476.46875 827.523438 477.738281 826.511719 C 482.242188 822.914062 487.28125 818.703125 490.867188 814.210938 C 498.390625 805.128906 506.207031 795.964844 513.578125 786.800781 C 516.09375 783.675781 520.101562 776.9375 522.367188 773.273438 C 536.679688 750.019531 542.566406 733.003906 550.53125 707.289062 C 555.042969 690.375 557.085938 675.925781 559.226562 658.671875 C 562.472656 632.546875 570.921875 655.097656 576.175781 665.085938 C 584.679688 681.242188 597.183594 698.027344 609.761719 711.25 C 611.402344 712.90625 612.007812 714.035156 613.644531 715.667969 C 623.722656 725.695312 629.414062 732.695312 641.585938 742.21875 C 653.835938 751.785156 663.308594 758.945312 677.015625 766.554688 C 686.46875 771.800781 684.484375 775.574219 684.175781 785.769531 C 684.003906 813.695312 686.582031 824.003906 696.753906 849.726562 C 698.058594 853.84375 700.910156 867.691406 707.015625 866.296875 C 710.945312 865.398438 718.351562 859.152344 722.046875 856.628906 C 736.425781 847.25 753.410156 838.929688 768.570312 830.425781 C 779.535156 824.277344 790.503906 818.128906 801.472656 811.980469 L 802.53125 811.386719 C 848.300781 784.863281 889.167969 748.121094 905.679688 696.378906 C 909.941406 683.011719 916.765625 661.609375 912.683594 693.289062 C 912.132812 697.5625 911.328125 702.0625 910.496094 706.296875 C 907.542969 719.859375 903.203125 731.167969 896.789062 743.460938 C 887.734375 760.457031 876.023438 774.21875 862.070312 787.371094 C 861.996094 787.445312 861.882812 787.550781 861.804688 787.621094 C 861.726562 787.695312 861.617188 787.800781 861.539062 787.875 C 855.386719 793.550781 848.921875 799.425781 842.125 804.269531 C 833.351562 810.53125 824.609375 817.066406 815.308594 822.605469 C 807.796875 827.078125 797.890625 833.371094 790.238281 836.976562 C 782.570312 840.691406 775.65625 845.605469 768.066406 849.667969 C 760.472656 853.730469 753.285156 858.492188 745.796875 862.875 C 719.28125 878.539062 689.8125 902.777344 671.28125 927.480469 C 641.105469 968.027344 628.765625 1015.996094 638.414062 1065.871094 C 642.316406 1085.59375 649.570312 1103.195312 659.851562 1120.425781 C 672.644531 1141.683594 659.105469 1100.050781 658.367188 1096.6875 C 647.265625 1045.199219 658.355469 984.148438 690.65625 942.035156 C 697.597656 932.984375 705.144531 925.054688 713.59375 917.410156 C 720.140625 911.527344 726.90625 905.855469 733.519531 900.046875 L 734.605469 899.09375 C 739.980469 894.367188 749.355469 889.226562 755.671875 885.441406 L 816.992188 856.984375 C 819.757812 855.832031 822.039062 854.679688 824.492188 853.582031 C 827.167969 852.382812 829.738281 851.492188 832.441406 850.117188 L 847.492188 842.855469 C 859.445312 837.320312 871.863281 830.015625 882.015625 821.847656 C 887.207031 817.671875 892.816406 814.015625 897.78125 809.585938 L 912.058594 795.839844 C 918.605469 789.292969 924.675781 782.113281 930.34375 774.683594 C 935.996094 767.265625 941.285156 759.453125 945.949219 751.367188 C 969.679688 708.390625 975.683594 666.824219 969.347656 618.488281 C 968.398438 610.933594 967.453125 595.6875 973.152344 613.554688 C 975.972656 622.402344 977.6875 632.28125 979.265625 641.449219 C 980.546875 649.792969 981.167969 657.789062 981.210938 666.230469 C 981.210938 676.636719 981.226562 688.828125 979.816406 698.566406 C 976.878906 718.003906 971.238281 736.320312 962.800781 754.09375 C 957.789062 764.664062 950.792969 774.742188 944.207031 784.398438 C 943.085938 785.761719 942.714844 786.351562 941.773438 787.671875 C 937.992188 792.980469 933.554688 798.171875 928.914062 802.835938 L 923.734375 808.554688 C 921.035156 811.25 918.59375 814.136719 915.59375 816.5 L 909.730469 822.054688 C 905.234375 826.609375 891.386719 838.246094 886.027344 842.460938 L 822.710938 884.5 C 813.742188 890.382812 804.339844 895.515625 795.125 901.023438 C 792.589844 902.542969 790.882812 903.652344 788.46875 905.265625 C 786.105469 906.847656 784.144531 907.972656 781.824219 909.519531 L 768.441406 918.449219 C 767.351562 919.214844 766.679688 919.796875 765.429688 920.628906 C 764.109375 921.507812 763.296875 921.980469 762.085938 922.992188 C 760.058594 924.6875 758.019531 926.011719 755.765625 927.570312 L 736.777344 942.316406 C 725.1875 951.242188 710.589844 968.5 702.523438 979.679688 C 701.703125 980.816406 701.183594 981.851562 700.234375 983.097656 L 695.476562 989.757812 C 680.121094 1015.085938 671.84375 1035.929688 670.179688 1065.921875 C 668.480469 1096.5625 676.203125 1124.472656 690.132812 1151.558594 C 691.097656 1153.40625 692.070312 1155.25 693.035156 1157.101562 C 694.503906 1159.941406 696.011719 1162.644531 697.65625 1165.386719 C 706.945312 1180.726562 718.957031 1196.308594 733.195312 1207.375 C 743.910156 1215.703125 736.851562 1203.082031 734.824219 1198.414062 C 723.695312 1172.78125 721.855469 1144.585938 721.328125 1117.027344 C 721.285156 1114.484375 721.328125 1112.027344 721.421875 1109.488281 C 722.742188 1078.90625 729.765625 1047.675781 746.738281 1021.820312 C 751.8125 1015.398438 756.886719 1008.976562 761.957031 1002.550781 C 772.113281 989.691406 775.179688 985.332031 788.652344 974.386719 C 794.691406 969.484375 801.601562 964.019531 808.042969 959.699219 C 814.832031 955.144531 821.617188 950.589844 828.402344 946.035156 C 831.796875 943.761719 835.191406 941.484375 838.585938 939.207031 L 841.640625 937.15625 C 843.210938 936.214844 843.507812 935.875 845.023438 934.835938 C 846.386719 933.90625 847.175781 933.585938 848.570312 932.671875 L 876.171875 915.125 C 880.910156 911.964844 884.8125 909.1875 889.273438 905.910156 L 924.421875 878.265625 C 924.503906 878.195312 924.613281 878.085938 924.691406 878.015625 L 929.710938 873.691406 C 930.777344 872.699219 931.507812 871.878906 932.558594 870.832031 L 938.5 865.359375 C 949.777344 855.609375 960.957031 841.359375 970.214844 829.523438 C 977.574219 819.667969 982.929688 808.570312 990 799.152344 C 1003.894531 780.648438 985.3125 825.484375 984.144531 827.929688 C 975.636719 845.75 965.75 858.441406 953.0625 873.339844 C 951.75 874.867188 950.445312 876.398438 949.140625 877.933594 L 948.363281 878.851562 C 942.925781 885.351562 935.617188 891.375 929.453125 897.308594 L 914.148438 910.023438 C 910.648438 913.089844 907.132812 915.125 903.527344 918.089844 C 889.644531 929.492188 863.816406 945.628906 848.4375 956.929688 C 839.449219 963.53125 830.234375 969.699219 821.730469 976.929688 C 812.671875 984.589844 804.222656 990.96875 796.496094 1000.121094 C 792.839844 1004.449219 788.996094 1007.984375 785.230469 1012.628906 C 766.285156 1035.996094 751.613281 1063.050781 744.726562 1092.453125 C 744.460938 1093.628906 744.25 1094.742188 744.039062 1095.925781 C 741.78125 1110.410156 737.839844 1145.757812 743.628906 1158.609375 C 747.347656 1166.855469 748.898438 1144.535156 749.175781 1142.976562 C 751.066406 1132.285156 754.699219 1121.035156 758.421875 1110.828125 C 760.085938 1106.617188 761.441406 1103.054688 763.097656 1098.894531 C 777.660156 1063.265625 791.222656 1051.113281 814.191406 1021.972656 C 817.792969 1017.402344 824.789062 1011.273438 829.28125 1007.3125 C 833.753906 1003.375 837.652344 999.148438 842.355469 995.476562 C 843.511719 994.574219 843.589844 994.464844 844.609375 993.578125 C 849.789062 989.0625 854.84375 984.484375 860.511719 980.421875 L 869.929688 973.234375 C 882.617188 963.753906 895.996094 955.105469 908.5625 945.4375 L 927.460938 931.125 C 930.542969 928.699219 933.949219 926.574219 936.710938 923.769531 C 938.199219 922.253906 939.554688 921.222656 941.183594 919.933594 C 954.238281 909.425781 965.527344 898.421875 975.984375 885.320312 C 991.785156 865.53125 979.820312 889.109375 975.367188 895.96875 C 971.804688 901.460938 967.800781 906.746094 963.792969 911.925781 C 959.265625 917.75 951.144531 926.078125 945.527344 931.023438 C 944.253906 932.144531 943.691406 932.339844 942.40625 933.613281 L 932.304688 942.191406 C 927.644531 946.035156 923.242188 949.488281 918.101562 952.902344 L 903.664062 962.855469 C 894.050781 969.808594 883.65625 975.570312 874.160156 982.652344 L 859.980469 992.863281 C 858.667969 993.851562 858.292969 994.507812 856.960938 995.554688 C 849.96875 1001.050781 843.175781 1006.589844 837.238281 1013.195312 C 837.167969 1013.273438 837.058594 1013.386719 836.988281 1013.464844 L 833.890625 1016.59375 C 833.808594 1016.664062 833.699219 1016.773438 833.621094 1016.84375 C 833.039062 1017.378906 833.394531 1017.085938 832.816406 1017.597656 C 832.105469 1018.214844 831.910156 1018.246094 831.097656 1018.992188 C 826.53125 1023.429688 820.121094 1031.585938 816.058594 1036.796875 C 814.859375 1038.679688 790.507812 1080.117188 798.929688 1073.183594 C 802.949219 1069.878906 812.558594 1054.191406 817.273438 1048.492188 C 823.34375 1041.152344 829.988281 1034.449219 836.796875 1027.804688 C 838.417969 1026.246094 839.542969 1025.640625 841.21875 1023.925781 L 847.535156 1018.304688 C 854.84375 1012.628906 859.34375 1008.136719 868.078125 1002 L 882.714844 992.246094 C 897.4375 982.355469 912.691406 973.160156 927.339844 963.179688 C 929.128906 961.960938 930.339844 960.863281 932.140625 959.675781 L 954.867188 941.402344 C 961.0625 935.671875 967.613281 929.710938 973.0625 923.269531 C 988.472656 904.8125 1001.652344 883.53125 1009.070312 860.546875 C 1012.277344 850.277344 1015.007812 839.277344 1017.089844 828.714844 C 1022.773438 798.4375 1023.5625 769.074219 1020.53125 738.414062 C 1018.757812 720.433594 1014.96875 703.054688 1011.347656 685.394531 C 1007.632812 667.273438 1002.75 650.261719 996.976562 632.816406 C 989.027344 611.996094 979.507812 591.347656 971.9375 570.558594 C 962.359375 544.257812 992.015625 599.070312 992.625 600.1875 L 992.738281 600.386719 C 993.726562 602.152344 994.71875 603.921875 995.6875 605.699219 L 995.832031 605.96875 C 1001.464844 617.339844 1006.132812 629.097656 1010.648438 640.941406 C 1017.039062 657.773438 1019.765625 669.226562 1024.863281 686.40625 C 1026.175781 690.824219 1027.53125 696.035156 1028.570312 700.863281 C 1032.003906 716.832031 1034.859375 731.453125 1036.265625 748.179688 C 1037.0625 757.695312 1039.605469 783.046875 1038.078125 793.15625 L 1036.691406 813.046875 C 1034.886719 832.152344 1030.730469 857.507812 1023.910156 875.519531 C 1019.253906 887.820312 1017.96875 892.738281 1011.480469 905.644531 C 1010.164062 908.269531 1009.15625 910.277344 1007.851562 912.910156 C 1002.832031 923.050781 984.617188 949.015625 976.9375 956.730469 L 971.742188 962.433594 C 965.917969 968.1875 960.832031 974.644531 954.523438 979.980469 L 939.304688 993.824219 C 920.304688 1011.351562 896.972656 1025.765625 876.078125 1041.273438 C 870.234375 1045.613281 864.773438 1049.171875 858.949219 1053.847656 C 852.941406 1058.667969 846.570312 1063.621094 840.683594 1068.496094 C 836.054688 1072.332031 829.578125 1078.96875 825.261719 1083.339844 C 811.222656 1097.570312 799.921875 1110.863281 790.015625 1128.347656 C 788.144531 1131.648438 785.949219 1136.699219 784.273438 1140.226562 C 782.261719 1144.460938 780.566406 1148.378906 779.101562 1152.84375 C 774.855469 1166.304688 772.625 1173.875 771.28125 1188.160156 C 768.859375 1222.769531 774.257812 1249.632812 791.316406 1279.96875 L 791.949219 1281.039062 C 801.148438 1296.472656 813.441406 1309.796875 828.113281 1320.125 C 841.316406 1328.800781 852.386719 1333.011719 868.3125 1331.773438 C 900.796875 1329.246094 874.042969 1339.957031 861.53125 1342.144531 C 853.070312 1343.625 844.667969 1343.773438 836.132812 1342.933594 C 834.066406 1342.710938 832.035156 1342.433594 829.980469 1342.132812 C 821.917969 1340.441406 813.425781 1338.375 805.644531 1335.328125 C 798.117188 1332.382812 791.726562 1329.179688 784.691406 1325.664062 C 776.453125 1321.546875 763.609375 1312.664062 756.078125 1307.570312 C 754.515625 1306.515625 753.398438 1305.570312 751.910156 1304.472656 C 750.3125 1303.296875 748.894531 1302.566406 747.3125 1301.285156 C 744.292969 1298.828125 741.660156 1296.84375 738.695312 1294.335938 L 730.03125 1287.425781 C 727.1875 1285.230469 724.480469 1282.269531 721.730469 1280.160156 C 717.375 1276.457031 691.589844 1250.410156 687.71875 1253.210938 C 683.246094 1256.445312 701.128906 1280.570312 703.910156 1284.214844 C 707.878906 1289.363281 711.964844 1294.226562 716.417969 1298.964844 C 718.0625 1300.617188 718.792969 1301.902344 720.558594 1303.648438 C 722.078125 1305.148438 723.203125 1306.285156 724.710938 1307.796875 C 730.363281 1313.457031 736.871094 1319.03125 743.167969 1324.109375 C 777.886719 1351.902344 827.300781 1372.917969 872.226562 1362.0625 C 890.363281 1357.679688 902.65625 1353.617188 916.652344 1340.617188 C 923.445312 1334.1875 927.488281 1328.332031 931.691406 1320.039062 L 932.261719 1318.917969 C 942.882812 1297.808594 940.171875 1273.207031 927.476562 1253.976562 C 922.886719 1247.023438 915.21875 1240.636719 907.933594 1236.671875 C 889.335938 1227.972656 858.957031 1227.527344 851.96875 1251.164062 C 850 1257.824219 850.75 1264.90625 859.289062 1259.59375 C 866.5 1255.109375 869.96875 1251.019531 879.597656 1252.25 C 883.015625 1252.691406 885.871094 1253.730469 889.019531 1255.066406 C 896.898438 1259.089844 904.402344 1268.097656 904.402344 1278.085938 C 904.402344 1282.292969 904.414062 1286.140625 903 1290.175781 C 891.457031 1311.328125 875.390625 1315.390625 852.859375 1309.5 C 842.238281 1306.726562 833.5625 1298.675781 826.164062 1290.9375 C 806.273438 1265.984375 805.625 1235.113281 821.949219 1208.128906 C 823.617188 1205.605469 825.363281 1203.292969 827.238281 1200.921875 C 828.847656 1198.945312 830.117188 1197.433594 831.671875 1195.492188 L 847.089844 1180.808594 C 856.90625 1173.511719 866.925781 1166.820312 877.9375 1161.320312 C 879.109375 1160.734375 880.105469 1160.292969 881.398438 1159.59375 C 882.960938 1158.742188 883.199219 1158.40625 884.75 1157.753906 C 896.503906 1152.78125 908.25 1147.667969 920.425781 1143.609375 L 928.414062 1141.21875 C 956.886719 1132.480469 986.203125 1128.183594 1015.980469 1128.105469 C 1039.050781 1128.105469 1065.496094 1130.9375 1085.550781 1142.089844 C 1090.609375 1144.898438 1093.6875 1146.664062 1098.140625 1150.257812 C 1102.425781 1153.71875 1104.898438 1156.628906 1108.476562 1160.679688 C 1111.757812 1164.402344 1114.175781 1169.253906 1116.15625 1173.761719 C 1121.503906 1185.953125 1121.570312 1200.300781 1116.808594 1212.847656 C 1113.753906 1220.898438 1108.535156 1228.285156 1102.78125 1234.105469 C 1087.273438 1249.789062 1058.019531 1257.972656 1038.074219 1246.132812 C 1026.691406 1239.226562 1019.523438 1230.441406 1019.839844 1216.488281 C 1020.152344 1202.703125 1029.058594 1193.507812 1041.980469 1189.976562 C 1051.621094 1187.570312 1060.289062 1192.128906 1064.222656 1191.34375 C 1068.890625 1190.414062 1056.804688 1182.15625 1055.164062 1181.335938 C 1029.402344 1169.105469 1000.570312 1190.183594 1000.3125 1218.375 C 1000.953125 1249.003906 1026.097656 1268.800781 1054.945312 1271.960938 C 1080.125 1274.449219 1107.929688 1265.28125 1127.839844 1249.941406 C 1137.046875 1242.738281 1144.414062 1234.597656 1150.953125 1224.925781 C 1156.375 1216.796875 1160.511719 1204.820312 1162.546875 1195.269531 C 1166.203125 1175.765625 1162.042969 1154.460938 1152.074219 1137.40625 C 1136.625 1110.996094 1109.765625 1095.824219 1080.207031 1090.535156 C 1075.742188 1089.789062 1071.292969 1089.253906 1066.796875 1088.777344 L 1065.769531 1088.695312 C 1055.140625 1087.886719 1042.878906 1087.300781 1032.289062 1088.882812 C 1026.761719 1089.59375 1022.125 1089.40625 1016.441406 1090.414062 C 1000.3125 1093.261719 985.574219 1095.820312 969.648438 1099.980469 C 928.347656 1110.761719 977.46875 1091.695312 986.082031 1088.804688 C 996.566406 1085.289062 1007.125 1082.078125 1017.75 1079.019531 C 1019.847656 1078.421875 1021.042969 1078.230469 1023.046875 1077.570312 C 1030.015625 1075.265625 1036.867188 1074.375 1044.300781 1072.871094 C 1090.109375 1064.113281 1128.652344 1059.761719 1174.304688 1073.175781 C 1197.40625 1080.5625 1214.0625 1090.472656 1230.527344 1108.375 C 1233.984375 1112.136719 1240.664062 1119.390625 1236.996094 1108.316406 C 1233.992188 1099.253906 1225.683594 1087.226562 1219.394531 1079.988281 C 1207.441406 1066.746094 1197.980469 1059.792969 1182.058594 1051.808594 C 1167.746094 1044.90625 1147.789062 1040.835938 1131.941406 1040.394531 C 1129.351562 1040.324219 1126.644531 1039.832031 1123.699219 1039.738281 C 1101.210938 1039.03125 1071.371094 1042.667969 1049.644531 1048.636719 L 1036.921875 1052.003906 C 1028.242188 1054.535156 1020.34375 1056.414062 1012.019531 1059.273438 C 1007.882812 1060.695312 1004.085938 1062.050781 999.953125 1063.296875 C 968.109375 1074.445312 934.316406 1087.945312 905.222656 1105.050781 C 903.304688 1106.234375 901.957031 1107.03125 900.035156 1108.167969 L 889.867188 1114.089844 C 882.226562 1119.175781 873.1875 1124.417969 866.117188 1130.300781 C 844.148438 1148.210938 826.839844 1162.789062 811.574219 1187.269531 L 810.867188 1188.46875 C 810.070312 1189.824219 809.347656 1191.148438 808.621094 1192.539062 L 808.21875 1193.320312 C 803.480469 1203.324219 801.820312 1209.433594 798.78125 1219.863281 C 791.75 1244.007812 794.421875 1194.992188 794.5625 1192.574219 C 798.230469 1156.761719 810.578125 1136.355469 833.082031 1109.335938 C 837.058594 1104.5625 845.355469 1096.425781 850.164062 1092.410156 C 858.785156 1085.214844 867.429688 1078.023438 876.074219 1070.851562 C 879.410156 1068.082031 887.5 1063.308594 891.554688 1060.691406 C 896.0625 1057.785156 900.570312 1054.878906 905.078125 1051.972656 C 907.394531 1050.5625 909.414062 1049.5 911.640625 1048.15625 L 931.167969 1037.066406 C 939.761719 1031.96875 948.980469 1027.386719 957.863281 1022.765625 C 959.113281 1022.109375 959.519531 1021.75 960.804688 1021.035156 L 983.976562 1008.398438 C 991.898438 1004.480469 999.214844 999.742188 1006.984375 995.597656 C 1014.558594 991.558594 1021.699219 986.859375 1028.929688 982.25 L 1053.273438 965.601562 C 1063.5625 957.613281 1075.566406 947.042969 1084.378906 937.507812 C 1097.085938 923.753906 1102.851562 913.367188 1111.277344 896.929688 C 1123.910156 872.269531 1119.085938 893.128906 1115.9375 904.890625 C 1106.328125 936.589844 1087.773438 957.496094 1062.472656 977.910156 L 1040.578125 993.378906 C 1031.214844 999.644531 1021.523438 1005.152344 1011.804688 1010.796875 L 987.550781 1023.90625 C 986.269531 1024.597656 985.792969 1024.800781 984.421875 1025.449219 L 944.855469 1046.085938 C 940.808594 1048.46875 936.5 1050.007812 932.449219 1052.359375 C 916.871094 1061.398438 900.078125 1068.976562 885.503906 1079.628906 C 883.566406 1081.042969 881.8125 1081.890625 879.710938 1083.175781 C 869.003906 1089.835938 858.050781 1099.042969 848.621094 1107.476562 C 840.230469 1114.984375 815.808594 1142.578125 814.289062 1152.917969 C 813.671875 1159.585938 828.503906 1139.292969 829.113281 1138.601562 C 834.070312 1132.933594 839.90625 1127.773438 845.660156 1122.929688 L 846.570312 1122.171875 C 859.6875 1111.988281 864.1875 1108.582031 878.242188 1099.351562 L 891.722656 1091.035156 C 894.136719 1089.585938 896.066406 1088.132812 898.4375 1086.847656 C 907.695312 1081.816406 923.242188 1073.703125 932.5 1069.535156 L 986.992188 1044.628906 C 997.351562 1040.492188 1007.519531 1035.683594 1018.117188 1032.15625 C 1027.617188 1029 1059.046875 1018.015625 1066.320312 1014.453125 C 1104.003906 996.035156 1120.414062 985.945312 1145.304688 951.242188 C 1168.835938 915.96875 1180.492188 878.632812 1180.492188 833.335938 C 1180.492188 821.511719 1179.421875 810.210938 1178.339844 799.160156 C 1177.132812 786.867188 1172.054688 765.722656 1168.238281 754.25 L 1153.164062 713.792969 C 1147.242188 701.457031 1141.492188 689.253906 1134.464844 677.480469 C 1133.199219 675.359375 1132.148438 673.824219 1131.015625 671.59375 C 1129.898438 669.386719 1128.792969 667.582031 1127.554688 665.710938 C 1126.414062 663.984375 1125.316406 662.210938 1124.148438 660.296875 C 1123.316406 658.933594 1123.09375 658.632812 1122.296875 657.476562 C 1117.355469 651.0625 1112.410156 644.648438 1107.46875 638.234375 C 1101.539062 630.535156 1095.605469 622.839844 1089.675781 615.140625 L 1088.191406 613.21875 C 1080.492188 603.570312 1069.777344 594.203125 1060.476562 585.921875 C 1031.324219 560.433594 997.972656 549.144531 965.167969 530.164062 C 962.710938 528.734375 960.289062 527.273438 957.867188 525.785156 C 947.953125 519.640625 937.308594 513.046875 927.257812 507.214844 C 917.285156 501.433594 915.0625 504.414062 904.449219 506.632812 C 882.0625 511.308594 868.632812 514.8125 848.976562 527.25 C 815.988281 552.71875 802.273438 590.820312 815.316406 631.023438 C 821.308594 649.507812 819.882812 618.0625 819.921875 614.929688 C 821.230469 594.140625 826.996094 573.339844 838.398438 555.78125 C 841.253906 551.539062 844.226562 547.882812 847.695312 544.132812 L 852.726562 539.820312 C 853.980469 538.84375 854.140625 538.621094 855.253906 537.679688 C 869.8125 527.0625 889.671875 521.222656 907.628906 521.207031 C 918.644531 521.195312 911.957031 527.492188 908.144531 532.882812 C 899.785156 544.695312 896.402344 552.492188 891.359375 565.898438 C 891.113281 566.5625 890.867188 567.222656 890.617188 567.878906 C 888.128906 574.324219 880.96875 575.183594 874.722656 576.222656 C 859.878906 578.496094 856.179688 575.3125 842.761719 571.644531 C 827.601562 567.5 840.824219 582.976562 844.941406 586.054688 C 863.644531 600.035156 878.945312 590.597656 881.703125 591.695312 C 884.222656 593.390625 873.210938 617.25 871.78125 620.632812 C 868.046875 629.742188 863.457031 638.78125 858.4375 647.25 L 838.792969 677.425781 C 829.792969 689.367188 816.1875 703.847656 805.671875 714.363281 C 799.152344 720.9375 794.425781 726.128906 787.242188 732.234375 C 783.050781 735.796875 779.441406 739.886719 775.105469 743.476562 L 759.464844 757.941406 C 751.398438 763.945312 745.632812 766.390625 735.222656 766.390625 C 726.730469 766.390625 720.097656 764.40625 712.902344 762.242188 C 711.074219 761.691406 710.601562 761.265625 708.820312 760.613281 C 696.507812 756.09375 685.148438 748.273438 674.25 741.003906 C 672.203125 739.640625 670.25 738.269531 668.273438 736.808594 L 658.929688 730.070312 C 652.730469 725.632812 647.175781 719.84375 641.203125 715.097656 C 639.632812 713.847656 639.710938 713.269531 638.519531 712.074219 L 632.917969 706.777344 C 629.074219 703.59375 626.109375 699.304688 622.738281 695.679688 C 614.234375 684.578125 604.363281 672.464844 596.609375 661.015625 C 581.960938 638.570312 571.570312 612.769531 563.027344 587.441406 C 559.144531 575.886719 560.664062 573.644531 569.507812 565.824219 C 575.4375 560.582031 582.507812 555.417969 589.15625 551.085938 C 591.875 549.355469 594.625 547.695312 597.394531 546.046875 L 611.367188 538.742188 C 612.144531 538.378906 612.445312 538.292969 613.164062 537.945312 C 646.648438 522.660156 681.820312 513.21875 716.28125 500.644531 C 735.902344 493.242188 739.578125 500.75 757 507.234375 C 758.265625 507.691406 792.398438 520.640625 782.039062 510.261719 C 776.710938 505.273438 752.503906 491.867188 751.457031 488.226562 C 750.074219 483.449219 759.082031 481.058594 762.425781 479.558594 C 766.027344 477.753906 769.539062 475.644531 773.011719 473.597656 C 774.398438 472.707031 775.375 471.917969 776.664062 471.023438 L 780.683594 468.296875 C 783.421875 466.394531 785.648438 464.683594 788.15625 462.796875 L 795.417969 457.085938 C 800.546875 453.125 807.894531 446.292969 812.421875 441.394531 C 813.722656 439.988281 814.085938 439.214844 815.53125 437.757812 C 816.890625 436.394531 817.140625 435.707031 818.378906 434.375 C 823.628906 428.730469 828.273438 422.332031 832.578125 415.882812 C 837.75 407.882812 840.679688 401.996094 844.652344 393.429688 C 852.59375 376.308594 855.039062 388.023438 860.019531 398.855469 C 866.054688 411.980469 872.394531 421.953125 880.433594 433.832031 C 886.472656 442.75 893.597656 451.152344 900.894531 459.039062 C 902.207031 460.457031 903.40625 461.539062 904.792969 462.925781 C 915.65625 473.789062 932.859375 489.074219 946.125 497.882812 C 955.382812 504.027344 964.246094 510.191406 973.777344 515.894531 C 977.054688 517.851562 980.167969 519.601562 983.3125 521.410156 C 996.691406 528.851562 1010.59375 534.886719 1024.285156 541.675781 C 1027.632812 543.371094 1030.984375 544.769531 1034.492188 546.519531 C 1038.269531 548.410156 1041.195312 549.675781 1045.191406 551.390625 C 1052.28125 554.425781 1058.710938 558.144531 1065.628906 561.570312 C 1067.488281 562.492188 1068.625 563.203125 1070.414062 564.050781 C 1087.527344 573.757812 1095.828125 577.855469 1109.632812 592.566406 C 1124.859375 608.789062 1110.9375 583.101562 1108.089844 578.660156 C 1097.457031 562.054688 1082.414062 549.457031 1065.691406 539.3125 C 1054.714844 532.71875 1043.074219 526.984375 1031.652344 521.203125 C 1029.734375 520.226562 1027.824219 519.242188 1025.917969 518.246094 C 1023.8125 517.148438 1022.082031 516.386719 1020.0625 515.28125 L 1002.3125 506.5625 C 1000.242188 505.527344 998.761719 504.832031 996.875 503.695312 C 995.050781 502.589844 993.195312 501.480469 991.25 500.5 C 983.527344 496.613281 976.339844 491.886719 969.175781 487.285156 C 956.101562 478.894531 940.5 468.152344 929.4375 456.960938 L 916.441406 444.011719 C 915.984375 443.558594 915.738281 443.382812 915.359375 443.015625 C 915.28125 442.945312 915.171875 442.839844 915.09375 442.761719 C 915.019531 442.6875 914.910156 442.578125 914.835938 442.503906 L 908.035156 434.769531 C 899.054688 423.148438 889.921875 411.589844 883.117188 398.449219 C 875.359375 383.765625 869.25 368.296875 864.628906 352.34375 C 856.484375 323.308594 855.5625 302.921875 858.214844 273.078125 C 860.503906 247.359375 863.960938 278.417969 865.078125 285.054688 C 868.550781 305.738281 873.4375 323.910156 878.863281 344.0625 C 882.265625 356.820312 889.839844 372.25 896.167969 383.84375 C 899.207031 389.402344 902.457031 395.296875 906.03125 400.449219 C 909.628906 405.628906 912.785156 411.210938 916.972656 415.972656 C 921.734375 421.390625 925.929688 427.417969 930.988281 432.578125 L 938.574219 440.039062 C 940.285156 441.398438 940.863281 441.886719 942.417969 443.464844 C 951.066406 452.246094 962.082031 459.640625 972.394531 466.421875 C 973.941406 467.4375 975.0625 468.371094 976.636719 469.445312 C 984.328125 474.703125 992.980469 479.011719 1001.265625 483.214844 L 1031.847656 497.789062 C 1045.101562 503.480469 1056.167969 509.789062 1068.871094 516.144531 C 1091.527344 527.484375 1074.851562 511.300781 1068.246094 504.355469 C 1061.125 496.867188 1054.3125 491.121094 1046.195312 484.785156 C 1035.578125 476.554688 1024.582031 468.800781 1013.683594 460.941406 L 969.640625 425.585938 C 968.171875 424.355469 967.683594 424.125 966.285156 422.710938 C 952.285156 408.550781 943.953125 400.3125 931.984375 384.355469 L 923.601562 373.015625 C 922.566406 371.554688 921.902344 370.785156 920.847656 369.023438 C 919.871094 367.394531 919.332031 366.851562 918.382812 365.265625 C 910.324219 351.324219 901.070312 333.761719 894.773438 319.105469 C 886.109375 298.429688 892.757812 304.082031 902.617188 316.496094 C 909.886719 325.773438 915.597656 331.582031 924.160156 339.613281 C 927.109375 342.378906 930.078125 345.117188 933.03125 347.875 L 933.910156 348.699219 C 934.996094 349.570312 935.390625 349.882812 936.460938 350.816406 L 973.652344 380.574219 C 993.394531 395.730469 1006.523438 407.554688 1022.546875 426.714844 C 1038.464844 445.367188 1029.605469 427.332031 1025.304688 418.480469 C 1020.644531 409.023438 1015.445312 401.085938 1009.535156 392.417969 C 1005.539062 386.53125 1001.730469 381.765625 996.910156 376.515625 C 995.730469 375.25 995.558594 374.667969 994.324219 373.394531 L 981.15625 359.574219 C 976.285156 354.488281 971.164062 349.351562 965.792969 344.835938 C 959.984375 339.09375 954.175781 333.347656 948.367188 327.605469 C 939.074219 318.417969 929.730469 309.253906 920.480469 300.027344 C 909.617188 288.523438 899.34375 273.492188 891.167969 259.925781 L 890.644531 259.054688 C 886.496094 252.082031 882.683594 245.011719 879.019531 237.773438 C 869.816406 219.417969 890.199219 244.84375 892.332031 247.253906 C 894.59375 249.816406 896.5625 251.992188 898.886719 254.566406 L 899.59375 255.351562 L 953.5625 305.171875 C 956.242188 307.75 959.519531 310.085938 961.996094 312.828125 L 988.867188 340.449219 C 1012.089844 366.890625 1025.027344 389.097656 1037.152344 422.097656 C 1039.253906 428.8125 1040.945312 435.5625 1042.507812 442.417969 C 1043.574219 447.265625 1044.542969 452.128906 1045.496094 457 C 1049.527344 478.042969 1053.25 457.609375 1055.082031 449.964844 C 1064.847656 401.277344 1061.957031 367.984375 1047.242188 320.789062 C 1045.625 316.128906 1043.894531 311.542969 1042.078125 306.957031 L 1036.660156 294.730469 C 1032.167969 285.050781 1026.851562 275.597656 1020.863281 266.933594 C 1019.59375 265.097656 1018.59375 264.003906 1017.328125 262.167969 C 1012.523438 255.1875 1003.933594 243.816406 997.945312 237.953125 C 997.167969 237.191406 996.589844 236.691406 995.894531 235.855469 C 989.765625 228.601562 978.652344 217.703125 970.9375 212.320312 C 962.40625 206.371094 953.402344 199.886719 944.71875 194.277344 C 913.601562 175.09375 880.875 165.664062 845.320312 158.652344 C 841.984375 158.019531 838.753906 157.527344 835.382812 157.125 L 819.964844 154.898438 C 808.132812 152.96875 795.273438 152.511719 783.21875 151.371094 C 768.640625 149.996094 751.066406 150.171875 736.371094 150.5 C 726.8125 150.714844 718.664062 151.152344 709.191406 152.21875 C 698.554688 153.421875 688.207031 154.03125 677.660156 156.132812 C 666.746094 158.355469 655.347656 160.324219 644.734375 163.683594 C 606.425781 175.875 583.902344 185.121094 551.378906 209.503906 C 550.324219 210.296875 549.265625 211.089844 548.210938 211.878906 L 547.574219 212.355469 C 544.777344 214.539062 543.007812 216.5 540.3125 218.582031 C 538.039062 220.335938 535.804688 222.914062 533.734375 224.980469 C 528.121094 230.59375 522.351562 236.199219 517.625 242.605469 C 504.832031 259.957031 493.542969 278.546875 488.292969 299.9375 C 485.027344 313.714844 483.226562 330.03125 485.082031 344.117188 C 487.308594 361.015625 491.34375 341.503906 492.652344 336.734375 C 496.304688 323.828125 501.503906 311.886719 507.515625 299.925781 Z M 507.515625 299.925781 " fill-opacity="1" fill-rule="evenodd"/></svg>