<svg width="24" height="24" viewBox="0 0 24 24" fill="none" xmlns="http://www.w3.org/2000/svg">
<path d="M12.091 11.5889C10.1593 9.0593 6.57176 4 7.67561 4C9.05542 4 11.1251 5.93173 11.815 7.03558C12.5049 8.13943 13.4708 9.93318 13.0568 11.313M10.7111 10.899C9.46932 9.42725 6.59932 6.51125 5.05393 6.62164C4.86996 7.08157 5.05393 8.58096 7.26162 10.899C9.46932 13.2171 11.1251 13.0607 11.677 12.6928M12.6428 15.5904C12.0909 14.4865 12.2289 12.9228 12.3669 12.2789C13.0108 11.9109 14.685 11.3958 16.2303 12.2789M12.6428 15.5904C12.1369 16.0503 11.4286 17.3014 12.6428 18.626C13.3328 19.1779 15.2369 19.3711 15.6784 17.3841C15.8164 16.4183 15.0713 14.7073 12.6428 15.5904ZM16.2303 12.2789C15.9544 12.8768 15.706 14.2658 16.9203 15.0385C18.0241 15.4524 19.2659 15.1764 19.6799 13.7966C19.8868 13.1067 19.7351 11.7821 18.3001 11.451C17.8401 11.405 16.7823 11.5062 16.2303 12.2789Z" stroke="black" stroke-width="0.45" stroke-linecap="round"/>
</svg>
